<?xml version="1.0" encoding="UTF-8"?>
<svg version="1.1" xmlns="http://www.w3.org/2000/svg" width="823" height="275">
<path d="M0 0 C0.99 0.495 0.99 0.495 2 1 C3.35546921 1.06011149 4.71391666 1.06051728 6.0703125 1.02734375 C6.885 1.01509766 7.6996875 1.00285156 8.5390625 0.99023438 C10.23967835 0.95555414 11.94021359 0.91661332 13.640625 0.87304688 C21.76521983 0.76480384 28.43735521 1.77971438 35 7 C44.83626282 17.92918091 42.12647074 34.81636977 42 48.6875 C41.97331277 51.69140222 41.95344397 54.69524261 41.9375 57.69921875 C41.92009766 59.66121216 41.92009766 59.66121216 41.90234375 61.6628418 C41.98164209 64.3726644 42.28085656 66.42793853 43 69 C42.855625 69.70125 42.71125 70.4025 42.5625 71.125 C42.01571329 73.91968765 41.94413325 76.34004748 41.96484375 79.1796875 C41.96991943 80.08187012 41.97499512 80.98405273 41.98022461 81.91357422 C41.99001343 82.94635498 41.99001343 82.94635498 42 84 C42.80686752 83.99111755 43.61373505 83.98223511 44.4450531 83.9730835 C52.0798948 83.89265915 59.7145287 83.83189513 67.34968472 83.79275131 C71.27424246 83.77194989 75.19844777 83.74377049 79.12280273 83.69824219 C82.9159341 83.65451582 86.70872824 83.63080701 90.50209236 83.62049103 C91.9432817 83.61314732 93.38445432 83.59880756 94.82549858 83.57707977 C103.66325627 83.44922579 112.0595135 83.37023364 118.86790466 89.75042725 C123.88630809 95.14443645 125.29931432 100.16447635 125.30639648 107.47729492 C125.31472 108.21298706 125.32304352 108.9486792 125.33161926 109.70666504 C125.35565061 112.1313207 125.36448438 114.55570673 125.37109375 116.98046875 C125.38006776 118.67572608 125.38918974 120.37098263 125.39845276 122.0662384 C125.41492841 125.61945515 125.42263983 129.17257787 125.42553711 132.72583008 C125.43090879 137.25729873 125.46854401 141.78787083 125.51428127 146.31908703 C125.54417458 149.82205853 125.55126337 153.32481775 125.55226326 156.82790565 C125.55644396 158.49712528 125.56879101 160.1663468 125.58978081 161.83543968 C125.69579448 170.99737933 125.76386781 179.32849855 120 187 C111.98085032 194.84521018 101.55100183 194.30961507 90.98046875 194.37890625 C89.63144256 194.39510966 88.28242782 194.41229256 86.9334259 194.43040466 C83.40509331 194.47580279 79.87674479 194.51076394 76.3482666 194.54260254 C70.68412737 194.59476087 65.02015569 194.65970251 59.35622597 194.73081779 C57.3825659 194.75359355 55.40883161 194.7696127 53.43510437 194.78553772 C52.23988663 194.79902756 51.04466888 194.8125174 49.81323242 194.82641602 C48.23393196 194.84068382 48.23393196 194.84068382 46.62272644 194.85523987 C43.88907534 194.89060564 43.88907534 194.89060564 41 196 C41.24300591 196.83367348 41.24300591 196.83367348 41.49092102 197.68418884 C42.04574412 200.20809096 42.13409379 202.46925414 42.14526367 205.05297852 C42.15164352 206.05825089 42.15802338 207.06352325 42.16459656 208.09925842 C42.16626579 209.7226841 42.16626579 209.7226841 42.16796875 211.37890625 C42.17129715 212.50135239 42.17462555 213.62379852 42.17805481 214.78025818 C42.18311829 217.15827017 42.18546331 219.53628926 42.18530273 221.91430664 C42.18747704 225.52437339 42.20560541 229.13412843 42.22460938 232.74414062 C42.22754597 235.0598948 42.22952899 237.37565041 42.23046875 239.69140625 C42.23765427 240.75952042 42.24483978 241.82763458 42.25224304 242.92811584 C42.19540032 261.90884101 42.19540032 261.90884101 37 268 C28.09623082 276.07496088 17.35506997 275.31262217 6.00390625 275.30078125 C4.44506213 275.3046752 2.88621905 275.3090113 1.32737732 275.31376648 C-1.92965138 275.32119995 -5.18657163 275.32095818 -8.44360352 275.31567383 C-12.59709675 275.30987996 -16.75014394 275.32682197 -20.9035635 275.3500185 C-24.11996513 275.36481906 -27.33626085 275.36561904 -30.55269051 275.36250877 C-32.08314968 275.36301871 -33.6136153 275.3681943 -35.14404106 275.37832069 C-44.49367897 275.43260622 -52.42211053 275.16925538 -60.75 270.4375 C-68.26390724 262.29743382 -68.69821461 253.66281165 -68.48828125 243.0234375 C-68.48072815 241.1513562 -68.48072815 241.1513562 -68.47302246 239.24145508 C-68.44703821 234.61906672 -68.3772324 229.99700812 -68.3125 225.375 C-68.1578125 209.844375 -68.1578125 209.844375 -68 194 C-91.1 194 -114.2 194 -138 194 C-138 193.34 -138 192.68 -138 192 C-138.53625 191.938125 -139.0725 191.87625 -139.625 191.8125 C-143.87522153 190.35847685 -146.7244983 187.93823605 -149.15917969 184.23852539 C-153.46121621 175.14388743 -152.43262955 165.18703083 -152.25 155.375 C-152.22990483 153.49350859 -152.2116594 151.61199646 -152.1953125 149.73046875 C-152.15155454 145.15312833 -152.08269402 140.57679581 -152 136 C-148.53053935 134.93100099 -145.368998 134.89744148 -141.75024414 134.93408203 C-140.4853566 134.94384064 -139.22046906 134.95359924 -137.91725159 134.96365356 C-137.24408968 134.97101658 -136.57092777 134.97837959 -135.87736702 134.98596573 C-133.76275997 135.00804636 -131.64824329 135.02208769 -129.53355408 135.03366089 C-123.52265088 135.06720128 -117.51189759 135.10887117 -111.5012207 135.17138672 C-107.82024452 135.20909726 -104.13942122 135.23207572 -100.45828056 135.24569321 C-99.05845306 135.25373107 -97.65864572 135.26731687 -96.2589283 135.28662491 C-94.29914126 135.31318972 -92.3391102 135.31936788 -90.37915039 135.32470703 C-89.26536514 135.33438507 -88.1515799 135.34406311 -87.00404358 135.35403442 C-83.5955784 134.95233785 -81.74750586 134.0210174 -79 132 C-77.38469986 129.81393491 -77.38469986 129.81393491 -76.125 127.3125 C-68.91084071 114.81162856 -68.91084071 114.81162856 -63.73046875 113.3671875 C-59.83783051 113.17352391 -57.74966556 113.53858141 -54.37890625 115.61328125 C-51.41232074 118.58960924 -50.69952165 120.90169787 -49.5625 124.9375 C-49.36495117 125.61756104 -49.16740234 126.29762207 -48.96386719 126.99829102 C-48.29161517 129.32753516 -47.64588019 131.66331244 -47 134 C-46.19109242 136.86051385 -45.37754464 139.71966781 -44.56225586 142.57836914 C-44.02507304 144.46924622 -43.49324199 146.36165271 -42.96704102 148.25561523 C-42.72526123 149.11872314 -42.48348145 149.98183105 -42.234375 150.87109375 C-41.91291504 152.03016235 -41.91291504 152.03016235 -41.58496094 153.21264648 C-41.14832209 155.00237471 -41.14832209 155.00237471 -40 156 C-39.34 153.69 -38.68 151.38 -38 149 C-38.66 148.67 -39.32 148.34 -40 148 C-39.01 148 -38.02 148 -37 148 C-36.89768066 147.4332959 -36.79536133 146.8665918 -36.68994141 146.28271484 C-35.07498459 137.75526634 -32.72684707 129.45838972 -30.390625 121.10546875 C-29.93042969 119.43291016 -29.93042969 119.43291016 -29.4609375 117.7265625 C-29.18040527 116.72189941 -28.89987305 115.71723633 -28.61083984 114.68212891 C-27.85196107 111.80844564 -27.85196107 111.80844564 -28 108 C-27.34 108 -26.68 108 -26 108 C-25.91290771 107.41911621 -25.82581543 106.83823242 -25.73608398 106.23974609 C-24.32465933 97.68414284 -22.06988848 89.4052004 -19.74145508 81.06396484 C-19.0587338 78.61147095 -18.38939551 76.15556994 -17.72070312 73.69921875 C-17.28465648 72.12477758 -16.84783512 70.55055071 -16.41015625 68.9765625 C-16.21317642 68.24942047 -16.01619659 67.52227844 -15.81324768 66.77310181 C-14.68854874 62.79292065 -13.47783793 59.33565571 -11 56 C-7.00580686 54.19130877 -4.96793508 53.70217382 -0.75 55 C4.5016099 58.81935266 5.70406064 64.8932849 7.26953125 70.94140625 C7.47124939 71.6980658 7.67296753 72.45472534 7.88079834 73.23431396 C8.53055349 75.67553244 9.17157888 78.11894898 9.8125 80.5625 C10.70026567 83.91222089 11.59221002 87.26082353 12.484375 90.609375 C12.70182877 91.42791458 12.91928253 92.24645416 13.14332581 93.08979797 C15.07260715 100.33021604 17.11825005 107.53454122 19.28637695 114.70727539 C20.69457636 119.47667829 21.50204682 124.04844307 22 129 C22.99 129 23.98 129 25 129 C24.67 129.99 24.34 130.98 24 132 C24.33 132.66 24.66 133.32 25 134 C35.18243652 135.75069678 45.87101204 135.03372751 56.15429688 134.78515625 C57.93223633 134.76388672 57.93223633 134.76388672 59.74609375 134.7421875 C60.80497803 134.7201123 61.8638623 134.69803711 62.95483398 134.67529297 C66.54539555 135.0581557 68.92007038 136.14523109 72 138 C73.6037232 141.20744641 73.47641504 144.52009881 73 148 C70.55998828 151.86335189 67.60782261 152.58434211 63.28128052 153.60531616 C59.34710974 154.28596618 55.47572397 154.19081161 51.49609375 154.08203125 C50.6139772 154.06412033 49.73186066 154.04620941 48.82301331 154.02775574 C46.96985139 153.98680443 45.11680501 153.94027826 43.26391602 153.88842773 C40.442298 153.81262889 37.62105744 153.76368265 34.79882812 153.71679688 C32.98954379 153.67349675 31.18029618 153.62862783 29.37109375 153.58203125 C28.53549423 153.56936722 27.69989471 153.55670319 26.838974 153.5436554 C20.48609972 153.33376248 15.87299536 152.19093053 10.70776367 148.25195312 C8.464928 145.294424 7.67342622 142.54105903 6.67578125 138.96875 C6.48404831 138.29581909 6.29231537 137.62288818 6.09477234 136.92956543 C5.4882487 134.78964915 4.90023377 132.64514393 4.3125 130.5 C3.90679696 129.0582561 3.49990757 127.61684547 3.09179688 126.17578125 C1.13364371 119.23193429 -0.79374168 112.35504659 -2.0625 105.25 C-2.32740234 103.77273437 -2.32740234 103.77273437 -2.59765625 102.265625 C-2.73042969 101.51796875 -2.86320313 100.7703125 -3 100 C-3.66 100 -4.32 100 -5 100 C-5.33 99.01 -5.66 98.02 -6 97 C-6.10054687 98.09054688 -6.20109375 99.18109375 -6.3046875 100.3046875 C-6.99530564 105.75131511 -8.56275722 110.87367303 -10.125 116.125 C-10.84227852 118.58135526 -11.55749115 121.03822226 -12.26953125 123.49609375 C-12.57201027 124.53848961 -12.57201027 124.53848961 -12.88059998 125.60194397 C-14.89216031 132.56549297 -16.82887851 139.54941082 -18.76171875 146.53515625 C-19.09308838 147.73247375 -19.42445801 148.92979126 -19.76586914 150.16339111 C-21.1185388 155.05398148 -22.470053 159.94488523 -23.81817627 164.83673096 C-24.77911797 168.32270221 -25.74290074 171.80787832 -26.70703125 175.29296875 C-26.99430588 176.33896744 -27.28158051 177.38496613 -27.57756042 178.46266174 C-28.8422832 183.02813998 -30.13849838 187.58108121 -31.56518555 192.09887695 C-31.78780563 192.80389847 -32.01042572 193.50891998 -32.23979187 194.23530579 C-33 196 -33 196 -35.25 198.125 C-38.9768494 199.31081572 -41.25023069 199.09084198 -45 198 C-49.23699855 193.87663743 -50.36482269 189.29148489 -51.8125 183.75 C-52.32139172 181.88144971 -52.83051697 180.012963 -53.33984375 178.14453125 C-53.60522949 177.15533691 -53.87061523 176.16614258 -54.14404297 175.14697266 C-55.0482746 171.82251579 -55.99027445 168.51054907 -56.94140625 165.19921875 C-57.26326904 164.07354492 -57.58513184 162.94787109 -57.91674805 161.78808594 C-58.54722269 159.5835932 -59.1801316 157.37979494 -59.81567383 155.17675781 C-60.2433606 153.6642041 -60.2433606 153.6642041 -60.6796875 152.12109375 C-60.93476074 151.2283374 -61.18983398 150.33558105 -61.45263672 149.41577148 C-62 147 -62 147 -62 143 C-62.66 142.67 -63.32 142.34 -64 142 C-63.67 141.34 -63.34 140.68 -63 140 C-63.66 140 -64.32 140 -65 140 C-65.37125 141.3303125 -65.37125 141.3303125 -65.75 142.6875 C-67.09534834 146.2526731 -68.27033793 148.34411258 -71 151 C-75.97797645 152.76128946 -80.66354583 153.32581116 -85.90234375 153.4140625 C-86.98619102 153.44311172 -86.98619102 153.44311172 -88.0919342 153.4727478 C-90.37367375 153.53197605 -92.65546533 153.57869855 -94.9375 153.625 C-96.4954633 153.66323223 -98.05340666 153.70228692 -99.61132812 153.7421875 C-103.40738781 153.83762975 -107.20354622 153.92186668 -111 154 C-111 154.33 -111 154.66 -111 155 C-112.65 155 -114.3 155 -116 155 C-116 154.67 -116 154.34 -116 154 C-124.415 153.505 -124.415 153.505 -133 153 C-132.67 159.6 -132.34 166.2 -132 173 C-127.15922655 174.93630938 -124.82742011 175.22688163 -119.76171875 175.16015625 C-119.05559952 175.15459213 -118.34948029 175.14902802 -117.6219635 175.14329529 C-116.10133016 175.13088698 -114.58072665 175.11423412 -113.06018066 175.09375 C-109.02853255 175.04065014 -104.99678224 175.02138856 -100.96484375 175.00390625 C-100.14146515 174.99996857 -99.31808655 174.99603088 -98.46975708 174.99197388 C-89.8902452 174.96758629 -81.32361687 175.2024221 -72.75 175.5 C-72.04797455 175.52409943 -71.3459491 175.54819885 -70.62265015 175.57302856 C-66.74811718 175.70737405 -62.87394577 175.84971073 -59 176 C-58.78085938 177.13695312 -58.56171875 178.27390625 -58.3359375 179.4453125 C-58.01640788 181.00536889 -57.69604948 182.56525568 -57.375 184.125 C-57.23449219 184.86621094 -57.09398438 185.60742188 -56.94921875 186.37109375 C-55.88576176 191.43314901 -54.23874866 195.54485112 -51.90234375 200.1640625 C-47.48843111 210.13518564 -48.14410395 220.52351811 -48.1875 231.25 C-48.1733103 234.3452786 -48.15098208 237.44038033 -48.12532043 240.5355835 C-48.11231106 242.4475318 -48.10752494 244.35955776 -48.11186218 246.27154541 C-48.11128311 247.1271405 -48.11070404 247.9827356 -48.11010742 248.86425781 C-48.11266037 249.61700989 -48.11521332 250.36976196 -48.11784363 251.14532471 C-48.11488629 253.09489178 -48.11488629 253.09489178 -47 255 C-40.58452984 256.00849322 -34.25252775 256.14749239 -27.76953125 256.1328125 C-26.81664719 256.13376923 -25.86376312 256.13472595 -24.88200378 256.13571167 C-22.8760064 256.13638834 -20.87000677 256.1345701 -18.86401367 256.13037109 C-15.83832718 256.12504546 -12.81279114 256.13031832 -9.78710938 256.13671875 C0.52308881 256.13989826 10.72788693 255.97407012 21 255 C21.90992305 252.27023085 22.12844593 250.64911026 22.1328125 247.83984375 C22.13474609 246.6497168 22.13474609 246.6497168 22.13671875 245.43554688 C22.13285156 244.61119141 22.12898437 243.78683594 22.125 242.9375 C22.12886719 242.10927734 22.13273438 241.28105469 22.13671875 240.42773438 C22.13542969 239.63560547 22.13414062 238.84347656 22.1328125 238.02734375 C22.13112061 236.94054321 22.13112061 236.94054321 22.12939453 235.83178711 C22.11061361 233.90199545 22.11061361 233.90199545 21 232 C21.66 232 22.32 232 23 232 C22.67547852 231.47092041 22.35095703 230.94184082 22.01660156 230.39672852 C20.72618876 227.35446566 20.74100341 224.95494872 20.734375 221.65234375 C20.73179687 220.40646484 20.72921875 219.16058594 20.7265625 217.87695312 C20.73429688 216.57693359 20.74203125 215.27691406 20.75 213.9375 C20.74226562 212.66455078 20.73453125 211.39160156 20.7265625 210.08007812 C20.74213281 202.50122974 21.3147099 195.39473818 23 188 C22.34 187.67 21.68 187.34 21 187 C21.5929915 185.53708696 22.19983823 184.07978487 22.8125 182.625 C23.14894531 181.81289062 23.48539063 181.00078125 23.83203125 180.1640625 C25 178 25 178 28 176 C36.2448047 174.45080164 44.89419789 174.89700286 53.2421875 174.97265625 C54.58211914 174.97962135 55.92205492 174.98582716 57.26199341 174.99131775 C62.8964219 175.01551942 68.53073487 175.05152711 74.16503906 175.09594727 C77.63363037 175.12277168 81.10215942 175.13978037 84.57083511 175.15081596 C86.51902437 175.15998834 88.46715056 175.18036136 90.41525269 175.20094299 C92.19332809 175.20601112 92.19332809 175.20601112 94.00732422 175.21118164 C95.56638992 175.22236778 95.56638992 175.22236778 97.1569519 175.23377991 C100.13182703 174.98916005 102.30557219 174.25096085 105 173 C105.87700534 167.01288478 106.1238532 161.23315008 106.0625 155.1875 C106.05573242 153.9200293 106.05573242 153.9200293 106.04882812 152.62695312 C106.04017453 151.07054192 106.02945068 149.51413967 106.01586914 147.95776367 C106.00247405 146.3052216 106 144.65259636 106 143 C105.814375 142.154375 105.62875 141.30875 105.4375 140.4375 C105 138 105 138 106 136 C105.855625 135.443125 105.71125 134.88625 105.5625 134.3125 C104.52850405 130.06162778 104.8634388 125.9217881 105.5 121.625 C106.33414125 115.57747594 106.31941974 109.96880359 105 104 C98.30953068 103.19078557 91.67031608 102.89210465 84.9375 102.875 C84.18734619 102.87048828 83.43719238 102.86597656 82.66430664 102.86132812 C78.70295483 102.79258307 78.70295483 102.79258307 75 104 C73.61248931 103.90503589 72.22923336 103.74502169 70.8515625 103.5546875 C63.03016797 102.67502653 55.15550045 102.99584959 47.29882812 103.17138672 C32.2369118 103.48844219 32.2369118 103.48844219 26 100 C22.15711538 95.4356263 22.52676264 90.60213437 22.48828125 84.92578125 C22.47033005 83.92910934 22.45237885 82.93243744 22.43388367 81.90556335 C22.37985131 78.70792049 22.34609105 75.51041592 22.3125 72.3125 C22.27927747 70.24281755 22.24478337 68.17315511 22.20898438 66.10351562 C21.96724944 51.0695469 21.96243748 36.03552466 22 21 C13.31611496 20.95368539 4.63227237 20.91813529 -4.05170918 20.89637566 C-8.08391491 20.8859328 -12.11603622 20.87176449 -16.14819336 20.84912109 C-20.03852863 20.82741053 -23.92878264 20.81543516 -27.81917381 20.81024551 C-29.30435656 20.80654654 -30.7895348 20.79932346 -32.274683 20.78853989 C-34.35289797 20.77404852 -36.43077594 20.77202104 -38.5090332 20.77294922 C-40.28441216 20.76628738 -40.28441216 20.76628738 -42.09565735 20.75949097 C-45.19473685 20.78016731 -45.19473685 20.78016731 -48 23 C-48.43161064 25.34072494 -48.43161064 25.34072494 -48.32470703 28.09790039 C-48.3195256 29.69711082 -48.3195256 29.69711082 -48.3142395 31.32862854 C-48.28630814 33.07054726 -48.28630814 33.07054726 -48.2578125 34.84765625 C-48.25119598 36.04748642 -48.24457947 37.24731659 -48.23776245 38.48350525 C-48.21428744 42.34342602 -48.17067712 46.20278332 -48.125 50.0625 C-47.70736766 95.04379143 -47.70736766 95.04379143 -51 100 C-56.38397157 103.26568767 -61.85713405 104.29300042 -68.05981445 103.61376953 C-74.80287574 102.98130683 -81.46119021 102.85505796 -88.23046875 102.8671875 C-89.42811356 102.86623077 -90.62575836 102.86527405 -91.85969543 102.86428833 C-94.36292575 102.86361356 -96.8661579 102.86541826 -99.36938477 102.86962891 C-103.21569666 102.87503967 -107.06189455 102.86963354 -110.90820312 102.86328125 C-113.34895859 102.86394114 -115.78971399 102.86522044 -118.23046875 102.8671875 C-119.38242233 102.86516327 -120.53437592 102.86313904 -121.72123718 102.86105347 C-123.30978264 102.86578171 -123.30978264 102.86578171 -124.93041992 102.87060547 C-126.33054573 102.87179886 -126.33054573 102.87179886 -127.75895691 102.87301636 C-130.03747031 102.85377771 -130.03747031 102.85377771 -132 104 C-131.98952637 104.57967529 -131.97905273 105.15935059 -131.96826172 105.7565918 C-131.92651385 108.40018321 -131.90061462 111.04370505 -131.875 113.6875 C-131.85824219 114.59951172 -131.84148437 115.51152344 -131.82421875 116.45117188 C-131.79063831 121.06848227 -131.76443815 124.81932331 -134 129 C-134.99 129 -135.98 129 -137 129 C-138.485 129.99 -138.485 129.99 -140 131 C-140 130.01 -140 129.02 -140 128 C-140.78246094 128.08378906 -141.56492188 128.16757813 -142.37109375 128.25390625 C-143.88896484 128.40666016 -143.88896484 128.40666016 -145.4375 128.5625 C-146.44683594 128.66691406 -147.45617187 128.77132812 -148.49609375 128.87890625 C-149.32238281 128.91886719 -150.14867187 128.95882812 -151 129 C-153.67283331 126.32716669 -152.23509897 118.53051011 -152.25 114.9375 C-152.270625 113.72126953 -152.29125 112.50503906 -152.3125 111.25195312 C-152.34621048 103.48590061 -152.24492834 97.04910623 -147.203125 90.7578125 C-146.55859375 90.21898438 -145.9140625 89.68015625 -145.25 89.125 C-144.61578125 88.57070312 -143.9815625 88.01640625 -143.328125 87.4453125 C-138.28942785 84.31726225 -132.9696066 83.75059652 -127.14672852 83.77294922 C-126.50197067 83.77265717 -125.85721283 83.77236511 -125.19291687 83.77206421 C-123.08810374 83.77344374 -120.98365658 83.78893872 -118.87890625 83.8046875 C-117.40917657 83.80842255 -115.93944438 83.8112672 -114.4697113 83.81326294 C-110.62115477 83.8208607 -106.77275171 83.84047553 -102.92425537 83.8626709 C-98.98923823 83.88321292 -95.05419605 83.89228245 -91.11914062 83.90234375 C-83.41269082 83.9237255 -75.706367 83.95781422 -68 84 C-68.00888245 83.17838379 -68.01776489 82.35676758 -68.0269165 81.51025391 C-68.10728116 73.74265476 -68.16807488 65.97525905 -68.20724869 58.20735168 C-68.22806593 54.21438771 -68.25627489 50.22176914 -68.30175781 46.22900391 C-68.3454269 42.37103919 -68.36918115 38.51340533 -68.37950897 34.6552124 C-68.38686282 33.18807776 -68.40122288 31.72095991 -68.42292023 30.25396729 C-68.65585992 13.84214143 -68.65585992 13.84214143 -62.55230713 7.49438477 C-52.20928409 -1.62982649 -36.03854671 0.91214264 -23.0625 0.875 C-21.92611084 0.87032715 -20.78972168 0.8656543 -19.61889648 0.86083984 C-13.01773419 0.87340888 -6.55226418 1.18733042 0 2 C0 1.34 0 0.68 0 0 Z " fill="#3077A6" transform="translate(154,0)"/>
<path d="M0 0 C2.62195225 4.40345653 3.99462773 9.01587705 5.26953125 13.94140625 C5.47124939 14.6980658 5.67296753 15.45472534 5.88079834 16.23431396 C6.53055349 18.67553244 7.17157888 21.11894898 7.8125 23.5625 C8.70026567 26.91222089 9.59221002 30.26082353 10.484375 33.609375 C10.70182877 34.42791458 10.91928253 35.24645416 11.14332581 36.08979797 C13.07260715 43.33021604 15.11825005 50.53454122 17.28637695 57.70727539 C18.69457636 62.47667829 19.50204682 67.04844307 20 72 C20.99 72 21.98 72 23 72 C22.67 72.99 22.34 73.98 22 75 C22.33 75.66 22.66 76.32 23 77 C33.18243652 78.75069678 43.87101204 78.03372751 54.15429688 77.78515625 C55.33958984 77.77097656 56.52488281 77.75679688 57.74609375 77.7421875 C59.33442017 77.70907471 59.33442017 77.70907471 60.95483398 77.67529297 C64.54539555 78.0581557 66.92007038 79.14523109 70 81 C71.6037232 84.20744641 71.47641504 87.52009881 71 91 C68.55998828 94.86335189 65.60782261 95.58434211 61.28128052 96.60531616 C57.34710974 97.28596618 53.47572397 97.19081161 49.49609375 97.08203125 C48.6139772 97.06412033 47.73186066 97.04620941 46.82301331 97.02775574 C44.96985139 96.98680443 43.11680501 96.94027826 41.26391602 96.88842773 C38.442298 96.81262889 35.62105744 96.76368265 32.79882812 96.71679688 C30.98954379 96.67349675 29.18029618 96.62862783 27.37109375 96.58203125 C26.11769447 96.5630352 26.11769447 96.5630352 24.838974 96.5436554 C18.48609972 96.33376248 13.87299536 95.19093053 8.70776367 91.25195312 C6.464928 88.294424 5.67342622 85.54105903 4.67578125 81.96875 C4.48404831 81.29581909 4.29231537 80.62288818 4.09477234 79.92956543 C3.4882487 77.78964915 2.90023377 75.64514393 2.3125 73.5 C1.90679696 72.0582561 1.49990757 70.61684547 1.09179688 69.17578125 C-0.86635629 62.23193429 -2.79374168 55.35504659 -4.0625 48.25 C-4.23910156 47.26515625 -4.41570312 46.2803125 -4.59765625 45.265625 C-4.73042969 44.51796875 -4.86320313 43.7703125 -5 43 C-5.66 43 -6.32 43 -7 43 C-7.33 42.01 -7.66 41.02 -8 40 C-8.10054687 41.09054688 -8.20109375 42.18109375 -8.3046875 43.3046875 C-8.99530564 48.75131511 -10.56275722 53.87367303 -12.125 59.125 C-12.84227852 61.58135526 -13.55749115 64.03822226 -14.26953125 66.49609375 C-14.57201027 67.53848961 -14.57201027 67.53848961 -14.88059998 68.60194397 C-16.89216031 75.56549297 -18.82887851 82.54941082 -20.76171875 89.53515625 C-21.09308838 90.73247375 -21.42445801 91.92979126 -21.76586914 93.16339111 C-23.1185388 98.05398148 -24.470053 102.94488523 -25.81817627 107.83673096 C-26.77911797 111.32270221 -27.74290074 114.80787832 -28.70703125 118.29296875 C-28.99430588 119.33896744 -29.28158051 120.38496613 -29.57756042 121.46266174 C-30.8422832 126.02813998 -32.13849838 130.58108121 -33.56518555 135.09887695 C-33.78780563 135.80389847 -34.01042572 136.50891998 -34.23979187 137.23530579 C-35 139 -35 139 -37.25 141.125 C-40.9768494 142.31081572 -43.25023069 142.09084198 -47 141 C-51.23699855 136.87663743 -52.36482269 132.29148489 -53.8125 126.75 C-54.32139172 124.88144971 -54.83051697 123.012963 -55.33984375 121.14453125 C-55.60522949 120.15533691 -55.87061523 119.16614258 -56.14404297 118.14697266 C-57.0482746 114.82251579 -57.99027445 111.51054907 -58.94140625 108.19921875 C-59.26326904 107.07354492 -59.58513184 105.94787109 -59.91674805 104.78808594 C-60.54722269 102.5835932 -61.1801316 100.37979494 -61.81567383 98.17675781 C-62.10079834 97.16838867 -62.38592285 96.16001953 -62.6796875 95.12109375 C-62.93476074 94.2283374 -63.18983398 93.33558105 -63.45263672 92.41577148 C-64 90 -64 90 -64 86 C-64.66 85.67 -65.32 85.34 -66 85 C-65.67 84.34 -65.34 83.68 -65 83 C-65.66 83 -66.32 83 -67 83 C-67.37125 84.3303125 -67.37125 84.3303125 -67.75 85.6875 C-69.09534834 89.2526731 -70.27033793 91.34411258 -73 94 C-77.97797645 95.76128946 -82.66354583 96.32581116 -87.90234375 96.4140625 C-88.6249086 96.43342865 -89.34747345 96.4527948 -90.0919342 96.4727478 C-92.37367375 96.53197605 -94.65546533 96.57869855 -96.9375 96.625 C-98.4954633 96.66323223 -100.05340666 96.70228692 -101.61132812 96.7421875 C-105.40738781 96.83762975 -109.20354622 96.92186668 -113 97 C-113 97.33 -113 97.66 -113 98 C-114.65 98 -116.3 98 -118 98 C-118 97.67 -118 97.34 -118 97 C-123.61 96.67 -129.22 96.34 -135 96 C-134.67 102.6 -134.34 109.2 -134 116 C-134.66 116 -135.32 116 -136 116 C-136 109.07 -136 102.14 -136 95 C-141.61 95 -147.22 95 -153 95 C-153 102.92 -153 110.84 -153 119 C-153.33 119 -153.66 119 -154 119 C-154 105.8 -154 92.6 -154 79 C-150.28192631 78.07048158 -147.54644664 77.89564478 -143.75024414 77.93408203 C-141.85291283 77.94871994 -141.85291283 77.94871994 -139.91725159 77.96365356 C-138.90750873 77.97469809 -138.90750873 77.97469809 -137.87736702 77.98596573 C-135.76275997 78.00804636 -133.64824329 78.02208769 -131.53355408 78.03366089 C-125.52265088 78.06720128 -119.51189759 78.10887117 -113.5012207 78.17138672 C-109.82024452 78.20909726 -106.13942122 78.23207572 -102.45828056 78.24569321 C-101.05845306 78.25373107 -99.65864572 78.26731687 -98.2589283 78.28662491 C-96.29914126 78.31318972 -94.3391102 78.31936788 -92.37915039 78.32470703 C-91.26536514 78.33438507 -90.1515799 78.34406311 -89.00404358 78.35403442 C-85.5955784 77.95233785 -83.74750586 77.0210174 -81 75 C-79.38469986 72.81393491 -79.38469986 72.81393491 -78.125 70.3125 C-70.91084071 57.81162856 -70.91084071 57.81162856 -65.73046875 56.3671875 C-61.83783051 56.17352391 -59.74966556 56.53858141 -56.37890625 58.61328125 C-53.41232074 61.58960924 -52.69952165 63.90169787 -51.5625 67.9375 C-51.36495117 68.61756104 -51.16740234 69.29762207 -50.96386719 69.99829102 C-50.29161517 72.32753516 -49.64588019 74.66331244 -49 77 C-48.19109242 79.86051385 -47.37754464 82.71966781 -46.56225586 85.57836914 C-46.02507304 87.46924622 -45.49324199 89.36165271 -44.96704102 91.25561523 C-44.72526123 92.11872314 -44.48348145 92.98183105 -44.234375 93.87109375 C-44.02006836 94.64380615 -43.80576172 95.41651855 -43.58496094 96.21264648 C-43.14832209 98.00237471 -43.14832209 98.00237471 -42 99 C-41.34 96.69 -40.68 94.38 -40 92 C-40.66 91.67 -41.32 91.34 -42 91 C-41.01 91 -40.02 91 -39 91 C-38.89768066 90.4332959 -38.79536133 89.8665918 -38.68994141 89.28271484 C-37.07498459 80.75526634 -34.72684707 72.45838972 -32.390625 64.10546875 C-31.93042969 62.43291016 -31.93042969 62.43291016 -31.4609375 60.7265625 C-31.18040527 59.72189941 -30.89987305 58.71723633 -30.61083984 57.68212891 C-29.85196107 54.80844564 -29.85196107 54.80844564 -30 51 C-29.34 51 -28.68 51 -28 51 C-27.91290771 50.41911621 -27.82581543 49.83823242 -27.73608398 49.23974609 C-26.32465933 40.68414284 -24.06988848 32.4052004 -21.74145508 24.06396484 C-21.0587338 21.61147095 -20.38939551 19.15556994 -19.72070312 16.69921875 C-19.28465648 15.12477758 -18.84783512 13.55055071 -18.41015625 11.9765625 C-18.21317642 11.24942047 -18.01619659 10.52227844 -17.81324768 9.77310181 C-16.68760532 5.78958199 -15.44132043 2.36244775 -13 -1 C-7.90165947 -3.78091302 -4.87099585 -2.94097863 0 0 Z " fill="#E75D58" transform="translate(156,57)"/>
<path d="M0 0 C7.34862511 6.36880843 11.02642784 16.09447777 11.81640625 25.57421875 C12.26422664 34.06096119 12.26422664 34.06096119 11.81640625 37.57421875 C8.58633837 39.72759734 7.85802365 39.80857847 4.16137695 39.70947266 C3.2206282 39.68930084 2.27987946 39.66912903 1.31062317 39.64834595 C0.2980394 39.6161496 -0.71454437 39.58395325 -1.7578125 39.55078125 C-2.79678177 39.52575531 -3.83575104 39.50072937 -4.90620422 39.47494507 C-8.22816384 39.39270251 -11.54953276 39.2961286 -14.87109375 39.19921875 C-17.12172058 39.1409836 -19.37237172 39.08368023 -21.62304688 39.02734375 C-27.14355697 38.88711741 -32.66364965 38.73511944 -38.18359375 38.57421875 C-37.43352224 40.35650913 -36.66900554 42.13272494 -35.8984375 43.90625 C-35.47425537 44.8960083 -35.05007324 45.8857666 -34.61303711 46.90551758 C-32.4178566 51.00381274 -30.51636789 51.97793354 -26.18359375 53.57421875 C-22.93181523 53.91016008 -22.93181523 53.91016008 -20.18359375 53.57421875 C-19.25402571 53.57421875 -18.32513471 53.64184353 -17.3984375 53.71484375 C-11.39257672 54.00328989 -7.21990889 52.8834522 -2.18359375 49.57421875 C-1.52359375 48.91421875 -0.86359375 48.25421875 -0.18359375 47.57421875 C1.11495346 48.64929504 2.40498986 49.73465611 3.69140625 50.82421875 C4.41070313 51.4275 5.13 52.03078125 5.87109375 52.65234375 C7.78692743 54.54509509 8.7808967 56.11079602 9.81640625 58.57421875 C-1.21877115 67.86150753 -10.75710393 71.44882934 -25.18652344 70.76220703 C-36.07427658 69.73732073 -44.6193648 65.02883708 -51.57421875 56.796875 C-58.98252213 46.56550455 -59.1791485 34.72774433 -58.18359375 22.57421875 C-56.11669756 13.02151717 -50.91077609 4.60376255 -43.18359375 -1.42578125 C-29.46590839 -8.54183053 -13.04995219 -8.77905875 0 0 Z M-34.62109375 13.88671875 C-36.34060691 16.84428138 -36.86848406 19.18678958 -37.18359375 22.57421875 C-36.52359375 22.57421875 -35.86359375 22.57421875 -35.18359375 22.57421875 C-35.18359375 23.23421875 -35.18359375 23.89421875 -35.18359375 24.57421875 C-25.94359375 24.57421875 -16.70359375 24.57421875 -7.18359375 24.57421875 C-8.10239516 17.1515077 -8.10239516 17.1515077 -12.18359375 11.57421875 C-20.17959629 7.72804031 -27.92532815 7.53432574 -34.62109375 13.88671875 Z " fill="#2F77A7" transform="translate(537.18359375,126.42578125)"/>
<path d="M0 0 C3.54110308 3.11372857 5.8580724 6.64069913 8.0390625 10.79296875 C8.379375 11.43492187 8.7196875 12.076875 9.0703125 12.73828125 C12.35882703 20.50282944 11.2794477 29.53974356 11.0390625 37.79296875 C8.23368947 38.72809309 6.55740886 38.91479782 3.65942383 38.90649414 C2.77873734 38.90641861 1.89805084 38.90634308 0.99067688 38.90626526 C0.04371445 38.90110397 -0.90324799 38.89594269 -1.87890625 38.890625 C-2.85128738 38.88921005 -3.82366852 38.8877951 -4.82551575 38.88633728 C-7.93318754 38.88073692 -11.04078746 38.86818437 -14.1484375 38.85546875 C-16.25455625 38.8504538 -18.36067613 38.84589088 -20.46679688 38.84179688 C-25.63153814 38.83076737 -30.79622563 38.8135025 -35.9609375 38.79296875 C-37.27731406 41.64030214 -37.27731406 41.64030214 -36.140625 43.73046875 C-32.57799057 49.36534235 -32.57799057 49.36534235 -26.9609375 52.79296875 C-24.25140199 53.04493004 -24.25140199 53.04493004 -21.9609375 52.79296875 C-21.9609375 53.45296875 -21.9609375 54.11296875 -21.9609375 54.79296875 C-19.581913 54.39343792 -17.20926994 53.9740797 -14.8359375 53.54296875 C-14.17078125 53.43339844 -13.505625 53.32382813 -12.8203125 53.2109375 C-8.00024314 52.31308144 -4.87857836 50.74645501 -0.9609375 47.79296875 C3.13181135 49.36710292 6.39862263 52.33399252 9.0390625 55.79296875 C9.0390625 58.79296875 9.0390625 58.79296875 7.60546875 60.2578125 C-3.37907109 68.33027161 -13.33724844 70.79429579 -26.9609375 69.79296875 C-38.16645573 67.61894914 -46.15858777 63.13174405 -52.78125 53.82421875 C-54.47698218 50.904415 -55.16062638 48.06090584 -55.9609375 44.79296875 C-56.6209375 44.46296875 -57.2809375 44.13296875 -57.9609375 43.79296875 C-58.45925594 15.52723949 -58.45925594 15.52723949 -54.5546875 11.25390625 C-54.02875 10.77179688 -53.5028125 10.2896875 -52.9609375 9.79296875 C-52.05010157 8.5328447 -51.15505082 7.26120787 -50.2734375 5.98046875 C-38.19445817 -10.12483702 -15.92255903 -11.39335054 0 0 Z M-34.2734375 13.16796875 C-36.58617691 16.76556339 -37.9609375 19.48562331 -37.9609375 23.79296875 C-28.0609375 23.79296875 -18.1609375 23.79296875 -7.9609375 23.79296875 C-6.73877641 21.87988867 -6.73877641 21.87988867 -7.37890625 19.98828125 C-8.94321531 15.77973404 -10.24982258 12.54979698 -13.9609375 9.79296875 C-21.5225056 6.5752802 -28.2743842 7.00677888 -34.2734375 13.16796875 Z " fill="#3077A6" transform="translate(805.9609375,127.20703125)"/>
<path d="M0 0 C1.65 0.66 3.3 1.32 5 2 C5 3.98 5 5.96 5 8 C5.56847656 7.59007813 6.13695312 7.18015625 6.72265625 6.7578125 C14.84533521 1.08956574 22.06120688 -1.11986401 32 0 C38.92948445 1.93585597 45.39840716 5.88015238 49.28515625 12.03515625 C53.55505523 20.71269289 53.1500288 30.35595337 53.09765625 39.8203125 C53.0962413 40.80498505 53.09482635 41.78965759 53.09336853 42.8041687 C53.08782615 45.911145 53.07528483 49.01804593 53.0625 52.125 C53.05747754 54.24739478 53.05291595 56.36979071 53.04882812 58.4921875 C53.03787567 63.66148683 53.02065166 68.83073069 53 74 C49.85418577 74.02888514 46.70840531 74.04675923 43.5625 74.0625 C42.66466797 74.07087891 41.76683594 74.07925781 40.84179688 74.08789062 C39.56079102 74.09272461 39.56079102 74.09272461 38.25390625 74.09765625 C37.46314697 74.10289307 36.6723877 74.10812988 35.85766602 74.11352539 C34 74 34 74 33 73 C32.89327608 71.55343428 32.85380802 70.1018187 32.84228516 68.65136719 C32.83202301 67.72660583 32.82176086 66.80184448 32.81118774 65.84906006 C32.80388641 64.84183899 32.79658508 63.83461792 32.7890625 62.796875 C32.76098714 60.68098194 32.73232263 58.56509662 32.703125 56.44921875 C32.66188492 53.10042592 32.625014 49.75177672 32.59863281 46.40283203 C32.57101553 43.17970526 32.52513318 39.95724502 32.4765625 36.734375 C32.47330963 35.73525085 32.47005676 34.73612671 32.46670532 33.70672607 C32.35413337 27.33713803 31.63292514 23.63292514 27 19 C22.44118692 17.76512802 18.71383825 17.78935921 14.1875 19.125 C10.24996222 21.44119869 8.03217596 23.93564807 6 28 C5.75334481 30.6523046 5.57064344 33.27873209 5.4375 35.9375 C5.3950415 36.75130127 5.35258301 37.56510254 5.30883789 38.40356445 C4.76457006 50.26028028 4.92036563 62.13447845 5 74 C-1.6 74 -8.2 74 -15 74 C-15.02255261 64.76002129 -15.04091601 55.52006072 -15.05181217 46.28006077 C-15.05704061 41.99000085 -15.06413753 37.69996067 -15.07543945 33.40991211 C-15.08626975 29.273206 -15.09227714 25.13651892 -15.09487724 20.99979973 C-15.09673124 19.41807696 -15.10035136 17.83635529 -15.10573006 16.25464058 C-15.1129424 14.04677162 -15.11399086 11.83898227 -15.11352539 9.63110352 C-15.115746 8.37201675 -15.11796661 7.11292999 -15.12025452 5.81568909 C-15 3 -15 3 -14 2 C-11.64686445 1.92728259 -9.29166332 1.91629132 -6.9375 1.9375 C-5.64714844 1.94652344 -4.35679687 1.95554687 -3.02734375 1.96484375 C-2.02832031 1.97644531 -1.02929688 1.98804687 0 2 C0 1.34 0 0.68 0 0 Z " fill="#3078A8" transform="translate(685,120)"/>
<path d="M0 0 C1.794375 -0.00386719 1.794375 -0.00386719 3.625 -0.0078125 C6.55327693 0.10742062 9.15786976 0.44676437 12 1.125 C12.09706112 7.23985027 11.77040851 13.05803301 11 19.125 C10.01 19.455 9.02 19.785 8 20.125 C8 19.465 8 18.805 8 18.125 C5.68690295 18.23841637 3.37449815 18.36603807 1.0625 18.5 C-0.22527344 18.56960937 -1.51304687 18.63921875 -2.83984375 18.7109375 C-3.88269531 18.84757812 -4.92554688 18.98421875 -6 19.125 C-6.33 19.785 -6.66 20.445 -7 21.125 C-7.66 21.125 -8.32 21.125 -9 21.125 C-9.33 26.075 -9.66 31.025 -10 36.125 C-7.03 35.63 -7.03 35.63 -4 35.125 C-2.4809615 35.04019325 -0.95889427 34.99455673 0.5625 35 C1.28566406 34.99742188 2.00882812 34.99484375 2.75390625 34.9921875 C5.23975627 35.13917689 7.57122463 35.58716925 10 36.125 C10.02685095 38.60423801 10.04676547 41.0831884 10.0625 43.5625 C10.07087891 44.26955078 10.07925781 44.97660156 10.08789062 45.70507812 C10.09653588 47.51193559 10.05220011 49.31887603 10 51.125 C8.48578999 52.63921001 7.07527232 52.33809856 4.96484375 52.44140625 C4.15595703 52.48330078 3.34707031 52.52519531 2.51367188 52.56835938 C1.66353516 52.60767578 0.81339844 52.64699219 -0.0625 52.6875 C-0.91650391 52.73068359 -1.77050781 52.77386719 -2.65039062 52.81835938 C-4.76672037 52.92476702 -6.88333813 53.02541731 -9 53.125 C-8.99777939 53.75504944 -8.99555878 54.38509888 -8.99327087 55.03424072 C-8.97115903 61.58776279 -8.95606868 68.14127427 -8.94506836 74.69482422 C-8.94003751 77.14111766 -8.93321216 79.58740809 -8.92456055 82.03369141 C-8.91244048 85.54851016 -8.90675921 89.06328918 -8.90234375 92.578125 C-8.89718246 93.6730426 -8.89202118 94.76796021 -8.88670349 95.89605713 C-8.88662796 96.91681335 -8.88655243 97.93756958 -8.88647461 98.98925781 C-8.884254 99.88638489 -8.88203339 100.78351196 -8.87974548 101.70782471 C-9 104.125 -9 104.125 -10 108.125 C-19.9 108.62 -19.9 108.62 -30 109.125 C-31.39285148 90.08936304 -30.6661811 71.17687295 -30 52.125 C-33.96 52.125 -37.92 52.125 -42 52.125 C-42 46.845 -42 41.565 -42 36.125 C-38.04 36.125 -34.08 36.125 -30 36.125 C-30.04640625 35.15820312 -30.0928125 34.19140625 -30.140625 33.1953125 C-30.40828527 23.54042434 -29.56552668 15.80024219 -23.8125 7.75 C-17.05311986 1.4412452 -8.99855536 -0.01939344 0 0 Z " fill="#357AA9" transform="translate(467,85.875)"/>
<path d="M0 0 C6.6 0 13.2 0 20 0 C20.13101226 9.88410863 20.26151904 19.7682236 20.39115143 29.65235043 C20.45137344 34.24260304 20.51181151 38.83285259 20.57275391 43.4230957 C20.63162698 47.85808719 20.68991872 52.29308598 20.74781799 56.72809029 C20.76993881 58.41484407 20.79226434 60.10159519 20.81480408 61.78834343 C21.03199835 78.06040929 21.03199835 78.06040929 21 86 C21.598125 85.835 22.19625 85.67 22.8125 85.5 C25 85 25 85 28 85 C28 85.66 28 86.32 28 87 C29.27488281 86.83757812 30.54976562 86.67515625 31.86328125 86.5078125 C36.98314117 85.94060938 42.0406354 85.85162287 47.1875 85.875 C48.48204102 85.86919922 48.48204102 85.86919922 49.80273438 85.86328125 C51.06633789 85.86521484 51.06633789 85.86521484 52.35546875 85.8671875 C53.10465576 85.86831543 53.85384277 85.86944336 54.62573242 85.87060547 C57.43825284 86.02388422 60.22163008 86.53693835 63 87 C63 92.28 63 97.56 63 103 C41.55 103 20.1 103 -2 103 C-1.505 102.01 -1.505 102.01 -1 101 C-0.02073626 97.96428241 0.05566977 97.16700931 -1 94 C-0.34 94 0.32 94 1 94 C0.83734146 92.69700455 0.67468292 91.39400909 0.50709534 90.05152893 C-0.00649313 85.40757711 -0.13553828 80.84384246 -0.11352539 76.17553711 C-0.11367142 75.34516937 -0.11381744 74.51480164 -0.1139679 73.65927124 C-0.11327815 70.948601 -0.10553028 68.2380018 -0.09765625 65.52734375 C-0.09578873 63.63448626 -0.0943664 61.74162829 -0.09336853 59.84877014 C-0.08956966 54.89224895 -0.07976211 49.93575755 -0.06866455 44.97924805 C-0.05839361 39.91129967 -0.05385878 34.84334643 -0.04882812 29.77539062 C-0.03813724 19.85024529 -0.02056202 9.9251298 0 0 Z " fill="#2671A4" transform="translate(562,91)"/>
<path d="M0 0 C0.33 0.66 0.66 1.32 1 2 C6.94 2 12.88 2 19 2 C19 30.38 19 58.76 19 88 C30.88 88 42.76 88 55 88 C57.64 88.33 60.28 88.66 63 89 C62.01 89.495 62.01 89.495 61 90 C61 94.95 61 99.9 61 105 C40.32652482 105.6496715 19.68642209 106.18082537 -1 106 C-2.14975231 103.70049537 -2.11292512 102.45518918 -2.08901978 99.90063477 C-2.08342545 99.04253204 -2.07783112 98.18442932 -2.07206726 97.30032349 C-2.06069229 96.3568808 -2.04931732 95.41343811 -2.03759766 94.44140625 C-2.02559578 92.95349075 -2.02559578 92.95349075 -2.01335144 91.43551636 C-1.98538669 88.14444211 -1.94994169 84.85349681 -1.9140625 81.5625 C-1.89230411 79.28328739 -1.87085412 77.00407182 -1.84970093 74.72485352 C-1.80414973 69.9431569 -1.75491963 65.16151576 -1.703125 60.37988281 C-1.63689524 54.23933601 -1.57962966 48.09874459 -1.52509499 41.95808411 C-1.48232317 37.25016481 -1.43487921 32.54230161 -1.38599777 27.83444214 C-1.36304024 25.56974695 -1.34153814 23.30503654 -1.32149124 21.04031372 C-1.29279998 17.87966888 -1.25785182 14.71915481 -1.22119141 11.55859375 C-1.2138649 10.61515106 -1.20653839 9.67170837 -1.19898987 8.69967651 C-1.1821389 7.41252243 -1.1821389 7.41252243 -1.16494751 6.09936523 C-1.15719614 5.35162338 -1.14944477 4.60388153 -1.14145851 3.83348083 C-1 2 -1 2 0 0 Z " fill="#2570A3" transform="translate(325,89)"/>
<path d="M0 0 C0.804375 -0.00128906 1.60875 -0.00257812 2.4375 -0.00390625 C3.283125 -0.00003906 4.12875 0.00382812 5 0.0078125 C6.2684375 0.00201172 6.2684375 0.00201172 7.5625 -0.00390625 C8.366875 -0.00261719 9.17125 -0.00132813 10 0 C10.7425 0.00112793 11.485 0.00225586 12.25 0.00341797 C14 0.1328125 14 0.1328125 15 1.1328125 C15.10491235 3.36125721 15.13857212 5.59307173 15.14526367 7.82397461 C15.14862228 8.52316513 15.1519809 9.22235565 15.15544128 9.94273376 C15.16497793 12.26522576 15.16689575 14.58764587 15.16796875 16.91015625 C15.17117947 18.51819387 15.1745434 20.12623119 15.17805481 21.73426819 C15.18405289 25.10955482 15.18589402 28.48481583 15.18530273 31.86010742 C15.18520108 36.1926255 15.19885383 40.52497983 15.21607494 44.85745907 C15.22717452 48.17994446 15.22922257 51.50239001 15.22869301 54.82489204 C15.2298762 56.42253751 15.23431682 58.0201839 15.24202538 59.6178112 C15.25178422 61.84941056 15.24896372 64.08065116 15.24291992 66.31225586 C15.24434494 67.5838707 15.24576996 68.85548553 15.24723816 70.16563416 C15 73.1328125 15 73.1328125 13 75.1328125 C13 74.4728125 13 73.8128125 13 73.1328125 C11.845 73.3184375 10.69 73.5040625 9.5 73.6953125 C5.13610352 74.2563849 1.33266935 73.82913436 -3 73.1328125 C-3 73.7928125 -3 74.4528125 -3 75.1328125 C-3.66 74.8028125 -4.32 74.4728125 -5 74.1328125 C-5.02312484 64.63206925 -5.0409158 55.13133562 -5.05181217 45.63057041 C-5.05704069 41.21944246 -5.06413777 36.8083337 -5.07543945 32.3972168 C-5.08626944 28.14380135 -5.09227707 23.89040441 -5.09487724 19.63697624 C-5.09673129 18.01059617 -5.10035152 16.38421716 -5.10573006 14.75784492 C-5.11294198 12.48771057 -5.11399088 10.21765365 -5.11352539 7.94750977 C-5.115746 6.65289322 -5.11796661 5.35827667 -5.12025452 4.02442932 C-4.93959327 -0.31971594 -3.94981262 0.00600015 0 0 Z " fill="#397CAA" transform="translate(401,120.8671875)"/>
<path d="M0 0 C0 24.09 0 48.18 0 73 C-4.95 73.33 -9.9 73.66 -15 74 C-16.98 74.495 -16.98 74.495 -19 75 C-20.24130542 69.27835785 -20.06837067 63.69321033 -20 57.875 C-19.94249902 49.73950071 -20.00632995 41.62349307 -20.25390625 33.4921875 C-20.29068985 32.28144058 -20.29068985 32.28144058 -20.32821655 31.04623413 C-20.45310031 27.03417447 -20.588348 23.02264377 -20.73242188 19.01123047 C-20.78133125 17.52311465 -20.83016293 16.03499627 -20.87890625 14.546875 C-20.9260376 13.23557617 -20.97316895 11.92427734 -21.02172852 10.57324219 C-21.00152904 7.25145034 -20.65255126 4.25051507 -20 1 C-16.85418896 0.83291073 -13.7083476 0.66639937 -10.5625 0.5 C-9.66466797 0.45230469 -8.76683594 0.40460938 -7.84179688 0.35546875 C-6.98779297 0.31035156 -6.13378906 0.26523438 -5.25390625 0.21875 C-4.46314697 0.17685547 -3.6723877 0.13496094 -2.85766602 0.09179688 C-1.90578081 0.04475931 -0.95304668 0 0 0 Z " fill="#377BA9" transform="translate(655,121)"/>
<path d="M0 0 C4.01326724 1.9294554 5.69364002 3.49259129 8 7.3125 C9.21507355 11.79308371 8.87578856 13.77947573 7 18 C5.0625 20.9375 5.0625 20.9375 2 23 C-3.28346538 23.91816319 -7.64675907 23.53663002 -12.625 21.5625 C-15.52747039 18.43088721 -15.98513825 16.43705019 -16.1640625 12.24609375 C-15.91402111 8.82290802 -15.00257774 6.77776912 -13 4 C-8.70146264 0.28762682 -5.6468782 -0.80669689 0 0 Z " fill="#3176A6" transform="translate(409,89)"/>
<path d="M0 0 C3.65691682 1.66223492 6.00179234 3.5031366 8 7 C9.21559742 10.90727743 9.07988244 12.751944 7.8125 16.6875 C6.01267698 19.97683173 5.13640801 21.13466261 2 23 C-1.72883111 23.66685504 -5.26168695 23.59347106 -9 23 C-12.88136715 20.22759489 -14.54421013 17.48868542 -16 13 C-16.33 12.34 -16.66 11.68 -17 11 C-16.34 11 -15.68 11 -15 11 C-14.9071875 9.63875 -14.9071875 9.63875 -14.8125 8.25 C-13.80707694 4.22830776 -12.39893348 3.23832205 -9 1 C-5.93570224 -0.53214888 -3.3834358 -0.22938548 0 0 Z " fill="#3479A7" transform="translate(648,89)"/>
<path d="M0 0 C6.6 0 13.2 0 20 0 C20.13101226 9.88410863 20.26151904 19.7682236 20.39115143 29.65235043 C20.45137344 34.24260304 20.51181151 38.83285259 20.57275391 43.4230957 C20.63162698 47.85808719 20.68991872 52.29308598 20.74781799 56.72809029 C20.76993881 58.41484407 20.79226434 60.10159519 20.81480408 61.78834343 C21.03199835 78.06040929 21.03199835 78.06040929 21 86 C21.598125 85.835 22.19625 85.67 22.8125 85.5 C25 85 25 85 28 85 C28 85.66 28 86.32 28 87 C29.27488281 86.83757812 30.54976562 86.67515625 31.86328125 86.5078125 C36.98314117 85.94060938 42.0406354 85.85162287 47.1875 85.875 C48.48204102 85.86919922 48.48204102 85.86919922 49.80273438 85.86328125 C51.06633789 85.86521484 51.06633789 85.86521484 52.35546875 85.8671875 C53.10465576 85.86831543 53.85384277 85.86944336 54.62573242 85.87060547 C57.43825284 86.02388422 60.22163008 86.53693835 63 87 C63 92.28 63 97.56 63 103 C41.55 103 20.1 103 -2 103 C-1.505 102.01 -1.505 102.01 -1 101 C19.79 101.33 40.58 101.66 62 102 C61.67 97.71 61.34 93.42 61 89 C46.81 89 32.62 89 18 89 C18.33 59.96 18.66 30.92 19 1 C12.73 1 6.46 1 0 1 C0 0.67 0 0.34 0 0 Z " fill="#6090B3" transform="translate(562,91)"/>
<path d="M0 0 C0.99 0 1.98 0 3 0 C3 4.95 3 9.9 3 15 C26.1 15 49.2 15 73 15 C73.495 15.99 73.495 15.99 74 17 C57.665 17.495 57.665 17.495 41 18 C41 18.33 41 18.66 41 19 C39.35 19 37.7 19 36 19 C36 18.67 36 18.34 36 18 C30.39 17.67 24.78 17.34 19 17 C19.33 23.6 19.66 30.2 20 37 C19.34 37 18.68 37 18 37 C18 30.07 18 23.14 18 16 C12.39 16 6.78 16 1 16 C1 23.92 1 31.84 1 40 C0.67 40 0.34 40 0 40 C0 26.8 0 13.6 0 0 Z " fill="#EFA19E" transform="translate(2,136)"/>
<path d="M0 0 C0.33 0 0.66 0 1 0 C1.22786458 2.05078125 1.45572917 4.1015625 1.68359375 6.15234375 C1.81886614 8.01140229 1.81886614 8.01140229 3 9 C3.0928726 10.41225046 3.11746772 11.82908934 3.11352539 13.24438477 C3.11344986 14.14524307 3.11337433 15.04610138 3.11329651 15.97425842 C3.10813522 16.95341721 3.10297394 17.93257599 3.09765625 18.94140625 C3.0962413 19.93881332 3.09482635 20.9362204 3.09336853 21.96385193 C3.08775114 25.16343124 3.07519571 28.36294169 3.0625 31.5625 C3.05748724 33.72591045 3.05292395 35.88932199 3.04882812 38.05273438 C3.03777607 43.36851325 3.02102104 48.68425171 3 54 C-0.14581423 54.02888514 -3.29159469 54.04675923 -6.4375 54.0625 C-7.33533203 54.07087891 -8.23316406 54.07925781 -9.15820312 54.08789062 C-10.43920898 54.09272461 -10.43920898 54.09272461 -11.74609375 54.09765625 C-12.53685303 54.10289307 -13.3276123 54.10812988 -14.14233398 54.11352539 C-16 54 -16 54 -17 53 C-17.09295815 51.55710213 -17.11746513 50.10970215 -17.11352539 48.66381836 C-17.11344986 47.7429393 -17.11337433 46.82206024 -17.11329651 45.87327576 C-17.10813522 44.87224319 -17.10297394 43.87121063 -17.09765625 42.83984375 C-17.0962413 41.82024063 -17.09482635 40.80063751 -17.09336853 39.75013733 C-17.08775097 36.47922893 -17.0751955 33.20838787 -17.0625 29.9375 C-17.05748726 27.72591244 -17.05292396 25.51432382 -17.04882812 23.30273438 C-17.03777584 17.86846643 -17.02102063 12.43423803 -17 7 C-16.67 7 -16.34 7 -16 7 C-15.34 21.85 -14.68 36.7 -14 52 C-9.05 52 -4.1 52 1 52 C0.67 34.84 0.34 17.68 0 0 Z " fill="#6591B2" transform="translate(735,140)"/>
<path d="M0 0 C0.33 0.66 0.66 1.32 1 2 C6.94 2 12.88 2 19 2 C19 2.33 19 2.66 19 3 C12.73 3 6.46 3 0 3 C0 36.33 0 69.66 0 104 C19.8 104 39.6 104 60 104 C60 99.05 60 94.1 60 89 C60.99 89.33 61.98 89.66 63 90 C62.34 90 61.68 90 61 90 C61 94.95 61 99.9 61 105 C40.32652482 105.6496715 19.68642209 106.18082537 -1 106 C-2.14975231 103.70049537 -2.11292512 102.45518918 -2.08901978 99.90063477 C-2.08342545 99.04253204 -2.07783112 98.18442932 -2.07206726 97.30032349 C-2.06069229 96.3568808 -2.04931732 95.41343811 -2.03759766 94.44140625 C-2.02559578 92.95349075 -2.02559578 92.95349075 -2.01335144 91.43551636 C-1.98538669 88.14444211 -1.94994169 84.85349681 -1.9140625 81.5625 C-1.89230411 79.28328739 -1.87085412 77.00407182 -1.84970093 74.72485352 C-1.80414973 69.9431569 -1.75491963 65.16151576 -1.703125 60.37988281 C-1.63689524 54.23933601 -1.57962966 48.09874459 -1.52509499 41.95808411 C-1.48232317 37.25016481 -1.43487921 32.54230161 -1.38599777 27.83444214 C-1.36304024 25.56974695 -1.34153814 23.30503654 -1.32149124 21.04031372 C-1.29279998 17.87966888 -1.25785182 14.71915481 -1.22119141 11.55859375 C-1.2138649 10.61515106 -1.20653839 9.67170837 -1.19898987 8.69967651 C-1.1821389 7.41252243 -1.1821389 7.41252243 -1.16494751 6.09936523 C-1.15719614 5.35162338 -1.14944477 4.60388153 -1.14145851 3.83348083 C-1 2 -1 2 0 0 Z " fill="#93B7CE" transform="translate(325,89)"/>
<path d="M0 0 C0.33 0 0.66 0 1 0 C1 22.44 1 44.88 1 68 C5.95 68 10.9 68 16 68 C16 67.01 16 66.02 16 65 C16.66 65 17.32 65 18 65 C18 66.65 18 68.3 18 70 C11.4 70 4.8 70 -2 70 C-1.89209173 61.02071347 -1.7800553 52.04150491 -1.66066074 43.06236362 C-1.60539364 38.89340984 -1.55196774 34.72444909 -1.50268555 30.55541992 C-1.45509765 26.53536106 -1.40275714 22.51539011 -1.34705925 18.49543571 C-1.32661034 16.95839553 -1.30790153 15.42133121 -1.29092598 13.88424873 C-1.2669378 11.73857994 -1.23687617 9.59307871 -1.20532227 7.44750977 C-1.18977798 6.22395279 -1.1742337 5.00039581 -1.15821838 3.73976135 C-1 1 -1 1 0 0 Z " fill="#266899" transform="translate(672,124)"/>
<path d="M0 0 C0.33 0 0.66 0 1 0 C1.89852382 10.923683 2.09987777 21.73304857 2 32.6875 C1.97331277 35.69140222 1.95344397 38.69524261 1.9375 41.69921875 C1.92589844 43.00721436 1.91429687 44.31520996 1.90234375 45.6628418 C1.98164209 48.3726644 2.28085656 50.42793853 3 53 C2.855625 53.70125 2.71125 54.4025 2.5625 55.125 C1.73766411 59.34082789 2 63.70423941 2 68 C23.78 68 45.56 68 68 68 C68 68.33 68 68.66 68 69 C45.56 69 23.12 69 0 69 C0 46.23 0 23.46 0 0 Z " fill="#B4CBDC" transform="translate(194,16)"/>
<path d="M0 0 C7.91885578 -0.04628946 15.83765526 -0.08185182 23.75661278 -0.10362434 C27.4334935 -0.11407274 31.11028183 -0.12825102 34.78710938 -0.15087891 C38.33379655 -0.17256991 41.88039472 -0.18456067 45.4271431 -0.18975449 C46.78197252 -0.193457 48.13679694 -0.20068689 49.49158859 -0.21146011 C51.38545757 -0.22592448 53.27941564 -0.22681649 55.17333984 -0.22705078 C56.25255707 -0.231492 57.33177429 -0.23593323 58.44369507 -0.24050903 C61 0 61 0 63 2 C60.18766245 2.1698931 57.37518151 2.33598232 54.5625 2.5 C53.3878418 2.57154297 53.3878418 2.57154297 52.18945312 2.64453125 C47.38933451 2.92108129 42.63558612 3.02665304 37.82788086 2.91992188 C35.90042487 2.87993823 35.90042487 2.87993823 34 4 C32.57875922 3.90897012 31.16151692 3.75179283 29.75 3.5625 C25.46390325 3.06699749 21.31340724 2.98715664 17 3.0625 C11.08418165 3.12075204 5.72062592 2.47629056 0 1 C0 0.67 0 0.34 0 0 Z " fill="#216B9E" transform="translate(195,100)"/>
<path d="M0 0 C6.6 0 13.2 0 20 0 C20.13101226 9.88410863 20.26151904 19.7682236 20.39115143 29.65235043 C20.45137344 34.24260304 20.51181151 38.83285259 20.57275391 43.4230957 C20.63162698 47.85808719 20.68991872 52.29308598 20.74781799 56.72809029 C20.76993881 58.41484407 20.79226434 60.10159519 20.81480408 61.78834343 C21.03199835 78.06040929 21.03199835 78.06040929 21 86 C22.98 85.505 22.98 85.505 25 85 C25.495 85.99 25.495 85.99 26 87 C23.09399739 88.25664978 21.20395416 89 18 89 C18.33 59.96 18.66 30.92 19 1 C12.73 1 6.46 1 0 1 C0 0.67 0 0.34 0 0 Z " fill="#5B92B7" transform="translate(562,91)"/>
<path d="M0 0 C1.95137039 3.27811862 2.24443864 5.71237637 2.22705078 9.50292969 C2.22689972 10.60376892 2.22674866 11.70460815 2.22659302 12.83880615 C2.21627045 14.02121887 2.20594788 15.20363159 2.1953125 16.421875 C2.1924826 17.63699768 2.18965271 18.85212036 2.18673706 20.10406494 C2.17553954 23.98614335 2.15043534 27.86799129 2.125 31.75 C2.11496966 34.38150709 2.10584391 37.01301779 2.09765625 39.64453125 C2.07560157 46.09643284 2.04212804 52.54819995 2 59 C1.67 59 1.34 59 1 59 C0.67 53.06 0.34 47.12 0 41 C-0.66 40.67 -1.32 40.34 -2 40 C-2 36 -2 36 -1.4375 34 C-0.91461723 31.60967878 -1.39335304 30.35918261 -2 28 C-2.13512944 24.41906996 -2.01611981 21.11082372 -1.5 17.5625 C-1.12406834 14.88398694 -0.95939214 12.60746684 -1 9.9375 C-1 6.46684364 -0.67842486 3.39212431 0 0 Z " fill="#266A9A" transform="translate(261,104)"/>
<path d="M0 0 C0.33 0 0.66 0 1 0 C1 23.43 1 46.86 1 71 C0.67 71 0.34 71 0 71 C-0.06058594 69.72382813 -0.12117187 68.44765625 -0.18359375 67.1328125 C-0.26799568 65.46352984 -0.35264386 63.79425963 -0.4375 62.125 C-0.47681641 61.28324219 -0.51613281 60.44148438 -0.55664062 59.57421875 C-0.59853516 58.76855469 -0.64042969 57.96289062 -0.68359375 57.1328125 C-0.72025146 56.38918457 -0.75690918 55.64555664 -0.79467773 54.87939453 C-0.89955865 52.91135688 -0.89955865 52.91135688 -2 51 C-1.34 51 -0.68 51 0 51 C-0.32452148 50.47092041 -0.64904297 49.94184082 -0.98339844 49.39672852 C-2.27381124 46.35446566 -2.25899659 43.95494872 -2.265625 40.65234375 C-2.26820313 39.40646484 -2.27078125 38.16058594 -2.2734375 36.87695312 C-2.26570312 35.57693359 -2.25796875 34.27691406 -2.25 32.9375 C-2.25773438 31.66455078 -2.26546875 30.39160156 -2.2734375 29.08007812 C-2.25786719 21.50122974 -1.6852901 14.39473818 0 7 C-0.66 6.67 -1.32 6.34 -2 6 C-1.34 4.02 -0.68 2.04 0 0 Z " fill="#94B5CC" transform="translate(177,181)"/>
<path d="M0 0 C7.14924343 -0.02559063 14.29847481 -0.04296672 21.44775391 -0.05493164 C23.87419069 -0.05992563 26.30062452 -0.06672313 28.72705078 -0.07543945 C54.59792872 -0.16597155 54.59792872 -0.16597155 66 1 C66 1.33 66 1.66 66 2 C57.83773412 2.15382269 49.67539372 2.30200377 41.51289654 2.4429636 C37.7228147 2.50859303 33.93278847 2.57617258 30.14282227 2.64819336 C26.48598455 2.7176128 22.82908956 2.78192987 19.17209816 2.84269524 C17.77621001 2.86678934 16.38035246 2.89272851 14.98453331 2.92053413 C13.03103879 2.95913523 11.07740711 2.99059597 9.1237793 3.02172852 C8.0112529 3.04171402 6.8987265 3.06169952 5.75248718 3.08229065 C3 3 3 3 0 2 C0 1.34 0 0.68 0 0 Z " fill="#7BA3C1" transform="translate(106,256)"/>
<path d="M0 0 C0.66 0 1.32 0 2 0 C2 18.48 2 36.96 2 56 C1.67 56 1.34 56 1 56 C0.93941406 55.02417969 0.87882813 54.04835937 0.81640625 53.04296875 C0.73261719 51.77066406 0.64882813 50.49835938 0.5625 49.1875 C0.48128906 47.92292969 0.40007813 46.65835938 0.31640625 45.35546875 C0.12815453 42.00818107 0.12815453 42.00818107 -1 39 C-1.01636236 36.0476047 -0.97409191 33.12479941 -0.87890625 30.17578125 C-0.85529526 29.31438034 -0.83168427 28.45297943 -0.80735779 27.56547546 C-0.7307872 24.81431325 -0.6467344 22.0634372 -0.5625 19.3125 C-0.5092727 17.44727963 -0.45653235 15.58204529 -0.40429688 13.71679688 C-0.27518096 9.14435004 -0.13935423 4.57214579 0 0 Z " fill="#2B6D9A" transform="translate(563,92)"/>
<path d="M0 0 C0.33 0 0.66 0 1 0 C1.66 14.85 2.32 29.7 3 45 C8.28 45.33 13.56 45.66 19 46 C19.33 45.34 19.66 44.68 20 44 C20 44.99 20 45.98 20 47 C16.85418577 47.02888514 13.70840531 47.04675923 10.5625 47.0625 C9.66466797 47.07087891 8.76683594 47.07925781 7.84179688 47.08789062 C6.56079102 47.09272461 6.56079102 47.09272461 5.25390625 47.09765625 C4.46314697 47.10289307 3.6723877 47.10812988 2.85766602 47.11352539 C1 47 1 47 0 46 C-0.09295815 44.55710213 -0.11746513 43.10970215 -0.11352539 41.66381836 C-0.11344986 40.7429393 -0.11337433 39.82206024 -0.11329651 38.87327576 C-0.10813522 37.87224319 -0.10297394 36.87121063 -0.09765625 35.83984375 C-0.0962413 34.82024063 -0.09482635 33.80063751 -0.09336853 32.75013733 C-0.08775097 29.47922893 -0.0751955 26.20838787 -0.0625 22.9375 C-0.05748726 20.72591244 -0.05292396 18.51432382 -0.04882812 16.30273438 C-0.03777584 10.86846643 -0.02102063 5.43423803 0 0 Z " fill="#9DBBD0" transform="translate(718,147)"/>
<path d="M0 0 C3.47994333 3.47994333 3.17978397 7.36201237 3.25 12.125 C3.27578125 13.17945313 3.3015625 14.23390625 3.328125 15.3203125 C3.21984375 16.20460937 3.1115625 17.08890625 3 18 C2.01 18.66 1.02 19.32 0 20 C-0.495 19.01 -0.495 19.01 -1 18 C-0.505 17.505 -0.505 17.505 0 17 C-15.51 17 -31.02 17 -47 17 C-47 16.67 -47 16.34 -47 16 C-31.82 16 -16.64 16 -1 16 C-0.67 10.72 -0.34 5.44 0 0 Z " fill="#307EAF" transform="translate(546,146)"/>
<path d="M0 0 C12.54 0 25.08 0 38 0 C38 0.33 38 0.66 38 1 C35.69 1 33.38 1 31 1 C31 1.66 31 2.32 31 3 C17.47 3 3.94 3 -10 3 C-10 2.67 -10 2.34 -10 2 C-6.7 2 -3.4 2 0 2 C0 1.34 0 0.68 0 0 Z " fill="#3376A6" transform="translate(39,100)"/>
<path d="M0 0 C0.66 0 1.32 0 2 0 C3.68948442 19.03686907 2.82662622 37.93703213 2 57 C1.34 56.67 0.68 56.34 0 56 C-0.625 53.4375 -0.625 53.4375 -1 51 C-0.34 51 0.32 51 1 51 C0.83701416 49.72261963 0.67402832 48.44523926 0.50610352 47.12915039 C-0.05599549 42.04943852 -0.12787015 37.03968438 -0.09765625 31.93359375 C-0.0962413 31.01409439 -0.09482635 30.09459503 -0.09336853 29.14723206 C-0.08782312 26.24395329 -0.07528117 23.34075499 -0.0625 20.4375 C-0.05747793 18.45507925 -0.05291627 16.47265727 -0.04882812 14.49023438 C-0.03787164 9.6601258 -0.02064542 4.83007649 0 0 Z " fill="#4D83A9" transform="translate(562,134)"/>
<path d="M0 0 C0 0.99 0 1.98 0 3 C-0.77085937 2.97679687 -1.54171875 2.95359375 -2.3359375 2.9296875 C-3.84027344 2.90261719 -3.84027344 2.90261719 -5.375 2.875 C-6.37273437 2.85179687 -7.37046875 2.82859375 -8.3984375 2.8046875 C-11.16262173 2.72783152 -11.16262173 2.72783152 -13 5 C-13.75776264 6.68698982 -14.46111782 8.39890633 -15.125 10.125 C-15.47820312 11.03507812 -15.83140625 11.94515625 -16.1953125 12.8828125 C-16.46085938 13.58148438 -16.72640625 14.28015625 -17 15 C-18.66040632 10.37926399 -17.07866937 6.92295025 -15.36328125 2.51953125 C-13.99101761 -0.01660069 -13.2197969 -1.0774122 -10.6875 -2.375 C-5.92905779 -3.18151563 -4.16013818 -2.29232104 0 0 Z " fill="#E36E6C" transform="translate(156,57)"/>
<path d="M0 0 C1.15218018 -0.0009668 1.15218018 -0.0009668 2.32763672 -0.00195312 C12.6524794 0.08802372 22.92171974 1.15515622 33.1875 2.1875 C33.1875 2.5175 33.1875 2.8475 33.1875 3.1875 C17.3475 3.1875 1.5075 3.1875 -14.8125 3.1875 C-9.97436073 -0.03792618 -5.70970124 -0.00500961 0 0 Z " fill="#2D6C9C" transform="translate(124.8125,0.8125)"/>
<path d="M0 0 C4.46573511 -0.02479481 8.9314333 -0.04290486 13.3972168 -0.05493164 C14.91512755 -0.05994766 16.4330335 -0.06676203 17.95092773 -0.07543945 C20.13787016 -0.08762497 22.32474846 -0.09325572 24.51171875 -0.09765625 C25.82615967 -0.10289307 27.14060059 -0.10812988 28.49487305 -0.11352539 C31.48205125 -0.01677552 34.10592611 0.29656236 37 1 C37 1.33 37 1.66 37 2 C36.37351563 1.98839844 35.74703125 1.97679688 35.1015625 1.96484375 C33.87566406 1.95130859 33.87566406 1.95130859 32.625 1.9375 C31.40683594 1.92009766 31.40683594 1.92009766 30.1640625 1.90234375 C27.95062858 1.85533666 27.95062858 1.85533666 26 3 C24.57875922 2.90897012 23.16151692 2.75179283 21.75 2.5625 C16.11409049 1.9033293 10.57190376 2.00619827 4.90625 2.16015625 C2 2 2 2 0 0 Z " fill="#7EA8C6" transform="translate(203,101)"/>
<path d="M0 0 C1.76462683 3.08809695 2 4.23312136 2 8 C2.99 8 3.98 8 5 8 C4.67 8.99 4.34 9.98 4 11 C4.33 11.66 4.66 12.32 5 13 C7.78466652 13.39259593 7.78466652 13.39259593 11 13.5 C14.3125 13.65625 14.3125 13.65625 17 14 C17.33 14.66 17.66 15.32 18 16 C15.73020335 16.10794277 13.45894804 16.18556176 11.1875 16.25 C9.92292969 16.29640625 8.65835938 16.3428125 7.35546875 16.390625 C4 16 4 16 2.11328125 14.171875 C0.35602257 10.74367912 -0.11752277 8.10907082 -0.0625 4.3125 C-0.05347656 3.50425781 -0.04445312 2.69601563 -0.03515625 1.86328125 C-0.02355469 1.24839844 -0.01195312 0.63351563 0 0 Z " fill="#F08079" transform="translate(174,121)"/>
<path d="M0 0 C2.66400509 2.66400509 3.20131895 5.58065244 4.125 9.125 C4.30385742 9.79990479 4.48271484 10.47480957 4.66699219 11.17016602 C5.87532062 15.95226965 6.3996608 20.10415525 6 25 C4.09723478 22.14585217 3.34392358 20.1305318 2.4375 16.875 C1.72262118 13.65831713 1.72262118 13.65831713 0 11 C-1.19565217 3.58695652 -1.19565217 3.58695652 0 0 Z " fill="#EB645D" transform="translate(168,100)"/>
<path d="M0 0 C21.78 0.495 21.78 0.495 44 1 C44 1.33 44 1.66 44 2 C29.81 2 15.62 2 1 2 C1 3.65 1 5.3 1 7 C0.34 6.34 -0.32 5.68 -1 5 C-0.67 3.35 -0.34 1.7 0 0 Z " fill="#2C6C9C" transform="translate(498,163)"/>
<path d="M0 0 C0.33 0 0.66 0 1 0 C1 7.26 1 14.52 1 22 C2.32 21.67 3.64 21.34 5 21 C5.33 21.66 5.66 22.32 6 23 C3.09399739 24.25664978 1.20395416 25 -2 25 C-1.86155153 21.20802551 -1.71299256 17.4165141 -1.5625 13.625 C-1.52318359 12.54476562 -1.48386719 11.46453125 -1.44335938 10.3515625 C-1.40146484 9.3203125 -1.35957031 8.2890625 -1.31640625 7.2265625 C-1.27974854 6.27346191 -1.24309082 5.32036133 -1.20532227 4.33837891 C-1 2 -1 2 0 0 Z " fill="#88AFCA" transform="translate(582,155)"/>
<path d="M0 0 C0.33 0 0.66 0 1 0 C1 8.91 1 17.82 1 27 C0.34 27.33 -0.32 27.66 -1 28 C-1.22730289 24.45928579 -1.42844022 20.91754334 -1.625 17.375 C-1.68945312 16.37597656 -1.75390625 15.37695312 -1.8203125 14.34765625 C-2.09829231 9.10078735 -2.19579577 4.91120734 0 0 Z " fill="#6693B4" transform="translate(689,146)"/>
<path d="M0 0 C0.66 0.33 1.32 0.66 2 1 C2 1.66 2 2.32 2 3 C9.26 3 16.52 3 24 3 C24 3.66 24 4.32 24 5 C11.625 5.495 11.625 5.495 -1 6 C-0.67 4.02 -0.34 2.04 0 0 Z " fill="#709CBB" transform="translate(342,174)"/>
<path d="M0 0 C2.475 0.99 2.475 0.99 5 2 C4.67 3.98 4.34 5.96 4 8 C3.67 6.68 3.34 5.36 3 4 C-5.415 4.495 -5.415 4.495 -14 5 C-14 4.01 -14 3.02 -14 2 C-9.38 2 -4.76 2 0 2 C0 1.34 0 0.68 0 0 Z " fill="#4A7EA5" transform="translate(685,120)"/>
<path d="M0 0 C0.33 0 0.66 0 1 0 C0.67 7.26 0.34 14.52 0 22 C-0.66 22 -1.32 22 -2 22 C-2.05807043 18.89591193 -2.09361914 15.7919636 -2.125 12.6875 C-2.14175781 11.80642578 -2.15851563 10.92535156 -2.17578125 10.01757812 C-2.18222656 9.17001953 -2.18867188 8.32246094 -2.1953125 7.44921875 C-2.20578613 6.66893311 -2.21625977 5.88864746 -2.22705078 5.0847168 C-2 3 -2 3 0 0 Z " fill="#4981A9" transform="translate(481,146)"/>
<path d="M0 0 C3.47994333 3.47994333 3.17978397 7.36201237 3.25 12.125 C3.27578125 13.17945313 3.3015625 14.23390625 3.328125 15.3203125 C3.21984375 16.20460937 3.1115625 17.08890625 3 18 C2.01 18.66 1.02 19.32 0 20 C-0.33 19.34 -0.66 18.68 -1 18 C-0.34 18 0.32 18 1 18 C0.83628906 17.31550781 0.67257812 16.63101563 0.50390625 15.92578125 C-0.06447034 12.6256722 -0.09630767 9.53445931 -0.0625 6.1875 C-0.05347656 5.02605469 -0.04445313 3.86460937 -0.03515625 2.66796875 C-0.02355469 1.78753906 -0.01195312 0.90710938 0 0 Z " fill="#5D8EB1" transform="translate(546,146)"/>
<path d="M0 0 C5.42577894 0.01656726 10.62801602 0.33754172 15.99609375 1.1328125 C14.9375 2.64453125 14.9375 2.64453125 12.99609375 4.1328125 C9.7109375 4.27734375 9.7109375 4.27734375 5.93359375 3.9453125 C4.05994141 3.80029297 4.05994141 3.80029297 2.1484375 3.65234375 C-1.00390625 3.1328125 -1.00390625 3.1328125 -3.00390625 1.1328125 C-2.00390625 0.1328125 -2.00390625 0.1328125 0 0 Z " fill="#5E92B7" transform="translate(80.00390625,99.8671875)"/>
<path d="M0 0 C0.66 1.32 1.32 2.64 2 4 C1.34 4 0.68 4 0 4 C0.02320312 4.60328125 0.04640625 5.2065625 0.0703125 5.828125 C0.08835937 6.62734375 0.10640625 7.4265625 0.125 8.25 C0.14820312 9.03890625 0.17140625 9.8278125 0.1953125 10.640625 C-0.14789375 14.78655645 -1.98436105 17.25851004 -5 20 C-5 19.34 -5 18.68 -5 18 C-5.66 17.67 -6.32 17.34 -7 17 C-6.01 17 -5.02 17 -4 17 C-3.87882812 16.35933594 -3.75765625 15.71867188 -3.6328125 15.05859375 C-2.64320773 9.95071067 -1.51489049 4.97749731 0 0 Z " fill="#EF8D87" transform="translate(121,131)"/>
<path d="M0 0 C0.33 0 0.66 0 1 0 C1 8.58 1 17.16 1 26 C0.67 26 0.34 26 0 26 C-0.06058594 24.89140625 -0.12117187 23.7828125 -0.18359375 22.640625 C-0.26802951 21.1770718 -0.35267599 19.71353075 -0.4375 18.25 C-0.47681641 17.52039063 -0.51613281 16.79078125 -0.55664062 16.0390625 C-0.7619358 12.56483638 -1.14210345 9.36180307 -2 6 C-2 5.34 -2 4.68 -2 4 C-1.34 4 -0.68 4 0 4 C0 2.68 0 1.36 0 0 Z " fill="#3475A2" transform="translate(637,162)"/>
<path d="M0 0 C0.33 0 0.66 0 1 0 C1.84800767 7.692641 2.12152487 15.26291674 2 23 C1.01 22.34 0.02 21.68 -1 21 C-1 17 -1 17 -0.4375 15 C0.08538277 12.60967878 -0.39335304 11.35918261 -1 9 C-1.22580645 2.4516129 -1.22580645 2.4516129 0 0 Z " fill="#AEC5D5" transform="translate(260,123)"/>
<path d="M0 0 C4.29 0 8.58 0 13 0 C7.34040162 2.82979919 2.98496856 3.12135485 -3.3125 3.0625 C-4.56675781 3.05347656 -5.82101563 3.04445313 -7.11328125 3.03515625 C-8.06589844 3.02355469 -9.01851562 3.01195313 -10 3 C-10 2.67 -10 2.34 -10 2 C-6.7 2 -3.4 2 0 2 C0 1.34 0 0.68 0 0 Z " fill="#6F9FC0" transform="translate(39,100)"/>
<path d="M0 0 C0.66 0.33 1.32 0.66 2 1 C1.46104623 4.7726764 0.00464642 6.68212991 -3 9 C-5.25 8.75 -5.25 8.75 -7 8 C-5.50902342 4.2047869 -3.24299151 2.38957269 0 0 Z " fill="#3179A8" transform="translate(697,123)"/>
<path d="M0 0 C3.37881434 1.39813007 5.15017878 2.82887791 7 6 C8.14785853 10.23824689 8.11072098 12.21863113 6 16 C5.86722656 15.31292969 5.73445312 14.62585938 5.59765625 13.91796875 C5.42105469 13.01691406 5.24445312 12.11585937 5.0625 11.1875 C4.88847656 10.29417969 4.71445312 9.40085937 4.53515625 8.48046875 C4.02258847 5.88602829 4.02258847 5.88602829 3 3 C2.01 2.67 1.02 2.34 0 2 C0 1.34 0 0.68 0 0 Z " fill="#6090B2" transform="translate(649,90)"/>
<path d="M0 0 C3.3 0.33 6.6 0.66 10 1 C10 1.66 10 2.32 10 3 C11.98 3 13.96 3 16 3 C16 3.33 16 3.66 16 4 C9.62740199 5.19937786 5.76173683 5.06475363 0 2 C0 1.34 0 0.68 0 0 Z " fill="#598EB2" transform="translate(774,179)"/>
<path d="M0 0 C2.97 0 5.94 0 9 0 C9 0.99 9 1.98 9 3 C5.7 3.33 2.4 3.66 -1 4 C-0.67 2.68 -0.34 1.36 0 0 Z " fill="#EC6C67" transform="translate(88,114)"/>
<path d="M0 0 C0.33 0 0.66 0 1 0 C1.1921227 5.47549707 0.99186369 9.86308839 -1 15 C-1.99 15.33 -2.98 15.66 -4 16 C-4.33 15.34 -4.66 14.68 -5 14 C-4.34 14 -3.68 14 -3 14 C-2.86722656 13.24074219 -2.73445312 12.48148438 -2.59765625 11.69921875 C-2.42105469 10.70535156 -2.24445313 9.71148437 -2.0625 8.6875 C-1.88847656 7.70136719 -1.71445313 6.71523437 -1.53515625 5.69921875 C-1 3 -1 3 0 0 Z " fill="#EC827C" transform="translate(131,94)"/>
<path d="M0 0 C0.66 0.33 1.32 0.66 2 1 C0.36041242 6.23272633 -1.38952035 11.15196636 -4 16 C-5.41131097 12.23948152 -4.5449072 9.97977756 -3.125 6.3125 C-2.75632813 5.33925781 -2.38765625 4.36601563 -2.0078125 3.36328125 C-1 1 -1 1 0 0 Z " fill="#EA7F7A" transform="translate(143,56)"/>
<path d="M0 0 C0 0.99 0 1.98 0 3 C-2.66666667 3.66666667 -5.33333333 4.33333333 -8 5 C-8.74765625 5.18691406 -9.4953125 5.37382812 -10.265625 5.56640625 C-10.83796875 5.70949219 -11.4103125 5.85257813 -12 6 C-11 3 -11 3 -8 1 C-5.29727414 0.44842329 -2.76011506 0 0 0 Z " fill="#588DB2" transform="translate(190,175)"/>
<path d="M0 0 C-1.40024183 2.80048365 -3.42908914 3.02054503 -6.2109375 4.13671875 C-8.64603963 5.31173528 -10.24886323 6.96868134 -12 9 C-12.33 8.01 -12.66 7.02 -13 6 C-5.7447644 -0.15117801 -5.7447644 -0.15117801 0 0 Z " fill="#5285AB" transform="translate(782,134)"/>
<path d="M0 0 C1.98 0 3.96 0 6 0 C5 2 5 2 3 4 C3.32041397 6.60280568 3.32041397 6.60280568 4 9 C2.68 8.34 1.36 7.68 0 7 C0 4.69 0 2.38 0 0 Z " fill="#6193B7" transform="translate(766,164)"/>
<path d="M0 0 C1.32 0.33 2.64 0.66 4 1 C3.071875 1.763125 2.14375 2.52625 1.1875 3.3125 C-0.98276101 5.11848552 -3.05568065 6.9476629 -5 9 C-5 4.61031544 -2.87194899 3.23094261 0 0 Z " fill="#4B83AB" transform="translate(94,5)"/>
<path d="M0 0 C2.20665404 3.30998105 2.78262095 5.82021436 3.625 9.6875 C3.88539062 10.86699219 4.14578125 12.04648438 4.4140625 13.26171875 C4.60742188 14.16535156 4.80078125 15.06898438 5 16 C4.01 15.67 3.02 15.34 2 15 C1.66223316 13.2508503 1.32996329 11.50063855 1 9.75 C0.814375 8.77546875 0.62875 7.8009375 0.4375 6.796875 C0 4 0 4 0 0 Z " fill="#ED837E" transform="translate(102,120)"/>
<path d="M0 0 C1.23593891 3.70781672 0.5678132 4.67510253 -0.9375 8.1875 C-1.31777344 9.08855469 -1.69804688 9.98960937 -2.08984375 10.91796875 C-2.54037109 11.94857422 -2.54037109 11.94857422 -3 13 C-3.66 12.67 -4.32 12.34 -5 12 C-5.3697479 6.45378151 -5.3697479 6.45378151 -3.625 4.3125 C-3.08875 3.879375 -2.5525 3.44625 -2 3 C-1.34 2.01 -0.68 1.02 0 0 Z " fill="#5084AA" transform="translate(755,134)"/>
<path d="M0 0 C0.66 0 1.32 0 2 0 C2 1.32 2 2.64 2 4 C2.66 4 3.32 4 4 4 C3.34 5.65 2.68 7.3 2 9 C1.67 8.34 1.34 7.68 1 7 C0.01 6.67 -0.98 6.34 -2 6 C-1.34 4.02 -0.68 2.04 0 0 Z " fill="#E76B68" transform="translate(118,188)"/>
<path d="M0 0 C0.98484375 0.00902344 1.9696875 0.01804687 2.984375 0.02734375 C4.10585938 0.04474609 4.10585938 0.04474609 5.25 0.0625 C2.919626 2.392874 2.06289219 2.45240587 -1.125 2.8125 C-2.28128906 2.95945312 -2.28128906 2.95945312 -3.4609375 3.109375 C-6.06614668 3.05602601 -7.53053857 2.37998852 -9.75 1.0625 C-6.43929162 0.06140485 -3.44915231 -0.04106134 0 0 Z " fill="#86AAC5" transform="translate(711.75,119.9375)"/>
<path d="M0 0 C0.33 0 0.66 0 1 0 C1.08121924 1.60332791 1.13929134 3.20784026 1.1875 4.8125 C1.22230469 5.70582031 1.25710937 6.59914063 1.29296875 7.51953125 C0.95081002 10.41647515 0.24606427 11.22555028 -2 13 C-3.45047396 10.09905209 -2.45356803 8.44027404 -1.5625 5.375 C-1.27503906 4.37210937 -0.98757812 3.36921875 -0.69140625 2.3359375 C-0.46324219 1.56507812 -0.23507813 0.79421875 0 0 Z " fill="#EC7C75" transform="translate(126,112)"/>
<path d="M0 0 C2 2 2 2 2.1953125 4.3828125 C2.17210937 5.28773437 2.14890625 6.19265625 2.125 7.125 C2.10695313 8.03507812 2.08890625 8.94515625 2.0703125 9.8828125 C2.03550781 10.93082031 2.03550781 10.93082031 2 12 C1.34 11.67 0.68 11.34 0 11 C-1.27368421 3.82105263 -1.27368421 3.82105263 0 0 Z " fill="#6996B7" transform="translate(394,96)"/>
<path d="M0 0 C4.43458973 1.3937282 6.87378374 3.60582235 10 7 C9.67 7.66 9.34 8.32 9 9 C7.49428343 7.88266271 5.99555708 6.75589965 4.5 5.625 C3.6646875 4.99851562 2.829375 4.37203125 1.96875 3.7265625 C1.3190625 3.15679687 0.669375 2.58703125 0 2 C0 1.34 0 0.68 0 0 Z " fill="#5087AE" transform="translate(266,86)"/>
<path d="M0 0 C0.33 0 0.66 0 1 0 C1.16275168 8.30033557 1.16275168 8.30033557 0 12 C-0.99 12.66 -1.98 13.32 -3 14 C-2.48594831 9.03083364 -1.76615118 4.70973649 0 0 Z " fill="#EC827D" transform="translate(135,80)"/>
<path d="M0 0 C1.74325447 2.6148817 2.41587957 4.0053433 3.125 6.9375 C3.29257813 7.60652344 3.46015625 8.27554688 3.6328125 8.96484375 C4 11 4 11 4 15 C3.34 15 2.68 15 2 15 C1.66223316 13.2508503 1.32996329 11.50063855 1 9.75 C0.814375 8.77546875 0.62875 7.8009375 0.4375 6.796875 C0 4 0 4 0 0 Z " fill="#EB7B78" transform="translate(157,60)"/>
<path d="M0 0 C0 0.66 0 1.32 0 2 C-1.0725 1.979375 -2.145 1.95875 -3.25 1.9375 C-6.14790424 1.9857984 -8.28612141 2.13155885 -11 3 C-9.55540356 -0.73187415 -9.55540356 -0.73187415 -7.1875 -1.875 C-4.37237823 -2.0358641 -2.523494 -1.19164995 0 0 Z " fill="#E76863" transform="translate(154,56)"/>
<path d="M0 0 C5.66153846 2.33846154 5.66153846 2.33846154 7.375 5.6875 C7.58125 6.450625 7.7875 7.21375 8 8 C3.58110387 6.64978174 1.65654657 4.73884332 -1 1 C-0.67 0.67 -0.34 0.34 0 0 Z " fill="#5C8CAF" transform="translate(758,184)"/>
<path d="M0 0 C0.33 0 0.66 0 1 0 C1 1.65 1 3.3 1 5 C2.98 5 4.96 5 7 5 C6.67 5.66 6.34 6.32 6 7 C3.69 7 1.38 7 -1 7 C-1.04254356 5.00045254 -1.04080783 2.99958364 -1 1 C-0.67 0.67 -0.34 0.34 0 0 Z " fill="#2A6C9B" transform="translate(767,146)"/>
<path d="M0 0 C1.90318884 2.85478326 2.4619099 4.41941308 3.125 7.6875 C3.29257813 8.49574219 3.46015625 9.30398437 3.6328125 10.13671875 C3.75398438 10.75160156 3.87515625 11.36648437 4 12 C3.01 12 2.02 12 1 12 C0.63597631 10.56496445 0.28413409 9.12683494 -0.0625 7.6875 C-0.25972656 6.88699219 -0.45695312 6.08648437 -0.66015625 5.26171875 C-1 3 -1 3 0 0 Z " fill="#EF8883" transform="translate(107,138)"/>
<path d="M0 0 C2.31 0 4.62 0 7 0 C7 0.66 7 1.32 7 2 C8.32 2.66 9.64 3.32 11 4 C9.4375 4.75 9.4375 4.75 7 5 C4.49713591 3.86915563 2.32992278 2.47860484 0 1 C0 0.67 0 0.34 0 0 Z " fill="#5589AF" transform="translate(492,189)"/>
<path d="M0 0 C1.32 0 2.64 0 4 0 C5.32 2.31 6.64 4.62 8 7 C7.01 8.485 7.01 8.485 6 10 C5.73445312 9.44570312 5.46890625 8.89140625 5.1953125 8.3203125 C4.84210937 7.59585938 4.48890625 6.87140625 4.125 6.125 C3.77695312 5.40570313 3.42890625 4.68640625 3.0703125 3.9453125 C2.03442457 1.84864981 2.03442457 1.84864981 0 0 Z " fill="#5087AD" transform="translate(523,137)"/>
<path d="M0 0 C0.33 0 0.66 0 1 0 C1.22786458 2.01822917 1.45572917 4.03645833 1.68359375 6.0546875 C1.91292961 8.07404316 1.91292961 8.07404316 3 10 C2.01 11.485 2.01 11.485 1 13 C-0.6290678 8.20862412 -1.20577428 4.94367454 0 0 Z " fill="#EC7A75" transform="translate(158,119)"/>
<path d="M0 0 C3.00617269 3.00617269 2.59585316 5.82381598 3 10 C2.34 10 1.68 10 1 10 C-1.125 3.375 -1.125 3.375 0 0 Z " fill="#EE7C77" transform="translate(168,100)"/>
<path d="M0 0 C1.125 1.5625 1.125 1.5625 2 4 C0.69565217 10.30434783 0.69565217 10.30434783 -2 13 C-2 11.68 -2 10.36 -2 9 C-1.34 9 -0.68 9 0 9 C-0.185625 8.2575 -0.37125 7.515 -0.5625 6.75 C-0.99203108 4.05009037 -0.85122974 2.55368923 0 0 Z " fill="#709DBD" transform="translate(416,96)"/>
<path d="M0 0 C2.32101984 3.48152976 2.69903201 5.86169011 3 10 C2.34 10.66 1.68 11.32 1 12 C0.03929566 9.11788698 -0.10581883 7.30149956 -0.0625 4.3125 C-0.05347656 3.50425781 -0.04445312 2.69601563 -0.03515625 1.86328125 C-0.02355469 1.24839844 -0.01195312 0.63351563 0 0 Z " fill="#EA736D" transform="translate(163,82)"/>
<path d="M0 0 C-4.96073422 1.32286246 -9.91111512 1.08893197 -15 1 C-12.669626 -1.330374 -11.81289219 -1.38990587 -8.625 -1.75 C-7.46871094 -1.89695313 -7.46871094 -1.89695313 -6.2890625 -2.046875 C-3.68385332 -1.99352601 -2.21946143 -1.31748852 0 0 Z " fill="#5A8BAF" transform="translate(113,3)"/>
<path d="M0 0 C1.32 0.33 2.64 0.66 4 1 C4 1.66 4 2.32 4 3 C4.99 3 5.98 3 7 3 C7 3.66 7 4.32 7 5 C7.99 5.33 8.98 5.66 10 6 C5.8333396 5.52651586 3.07115285 4.95303159 0 2 C0 1.34 0 0.68 0 0 Z " fill="#EC8882" transform="translate(164,146)"/>
<path d="M0 0 C0.99 0.66 1.98 1.32 3 2 C3 3.32 3 4.64 3 6 C2.34 5.67 1.68 5.34 1 5 C1.33 4.34 1.66 3.68 2 3 C1.34 3 0.68 3 0 3 C-0.66 4.32 -1.32 5.64 -2 7 C-2 3 -2 3 0 0 Z " fill="#EE8B86" transform="translate(89,137)"/>
<path d="M0 0 C0.33 0.99 0.66 1.98 1 3 C-4.75 8 -4.75 8 -7 8 C-6.34 6.68 -5.68 5.36 -5 4 C-4.34 4 -3.68 4 -3 4 C-3 3.34 -3 2.68 -3 2 C-2.01 2 -1.02 2 0 2 C0 1.34 0 0.68 0 0 Z " fill="#6F9CB9" transform="translate(814,183)"/>
<path d="M0 0 C2.31 1.98 4.62 3.96 7 6 C6.34 6.66 5.68 7.32 5 8 C2.5 5.6875 2.5 5.6875 0 3 C0 2.01 0 1.02 0 0 Z " fill="#4079A3" transform="translate(486,181)"/>
<path d="M0 0 C0.66 1.32 1.32 2.64 2 4 C1.01 4.99 0.02 5.98 -1 7 C-1.99 6.67 -2.98 6.34 -4 6 C-3.67 5.01 -3.34 4.02 -3 3 C-2.34 3 -1.68 3 -1 3 C-0.67 2.01 -0.34 1.02 0 0 Z " fill="#81ABC6" transform="translate(545,181)"/>
<path d="M0 0 C0.66 0 1.32 0 2 0 C2.33 2.64 2.66 5.28 3 8 C2.01 8.495 2.01 8.495 1 9 C0.67 6.03 0.34 3.06 0 0 Z " fill="#4C81A8" transform="translate(813,140)"/>
<path d="M0 0 C0.66 0.33 1.32 0.66 2 1 C1.34 2.32 0.68 3.64 0 5 C-1.65 5 -3.3 5 -5 5 C-3.35 3.35 -1.7 1.7 0 0 Z " fill="#5388AD" transform="translate(697,123)"/>
<path d="M0 0 C1.60031344 3.20062687 0.03173691 5.72271806 -1 9 C-3 6 -3 6 -2.75 3.375 C-2.5025 2.59125 -2.255 1.8075 -2 1 C-1.34 0.67 -0.68 0.34 0 0 Z " fill="#EC7A75" transform="translate(143,113)"/>
<path d="M0 0 C2.31 0 4.62 0 7 0 C7 0.33 7 0.66 7 1 C4.69 1 2.38 1 0 1 C0 0.67 0 0.34 0 0 Z " fill="#FEFDFD" transform="translate(30,154)"/>
<path d="M0 0 C0.66 0.66 1.32 1.32 2 2 C1.625 4.125 1.625 4.125 1 6 C0.67 4.02 0.34 2.04 0 0 Z " fill="#FEFDFD" transform="translate(158,134)"/>
<path d="M0 0 C0.33 0 0.66 0 1 0 C1 1.98 1 3.96 1 6 C0.67 6 0.34 6 0 6 C0 4.02 0 2.04 0 0 Z " fill="#FDFEFE" transform="translate(394,136)"/>
<path d="M0 0 C1.65 0 3.3 0 5 0 C5 0.33 5 0.66 5 1 C3.35 1 1.7 1 0 1 C0 0.67 0 0.34 0 0 Z " fill="#FDFEFE" transform="translate(617,195)"/>
<path d="M0 0 C1.65 0 3.3 0 5 0 C5 0.33 5 0.66 5 1 C3.35 1 1.7 1 0 1 C0 0.67 0 0.34 0 0 Z " fill="#FFFEFE" transform="translate(54,154)"/>
<path d="M0 0 C4 1 4 1 4 1 Z " fill="#FDFEFE" transform="translate(354,195)"/>
<path d="M0 0 C1 4 1 4 1 4 Z " fill="#FCFDFE" transform="translate(322,189)"/>
<path d="M0 0 C0.66 0 1.32 0 2 0 C2 0.66 2 1.32 2 2 C1.34 2 0.68 2 0 2 C0 1.34 0 0.68 0 0 Z " fill="#FDFEFE" transform="translate(527,148)"/>
<path d="M0 0 C0.66 0 1.32 0 2 0 C2 0.66 2 1.32 2 2 C1.34 2 0.68 2 0 2 C0 1.34 0 0.68 0 0 Z " fill="#FDFEFE" transform="translate(676,119)"/>
<path d="M0 0 C3 1 3 1 3 1 Z " fill="#FDFEFE" transform="translate(494,193)"/>
<path d="" fill="#FEFEFE" transform="translate(0,0)"/>
<path d="" fill="#FEFFFF" transform="translate(0,0)"/>
<path d="" fill="#FFFEFE" transform="translate(0,0)"/>
<path d="" fill="#FEFEFE" transform="translate(0,0)"/>
<path d="" fill="#FEFDFD" transform="translate(0,0)"/>
<path d="" fill="#FEFEFE" transform="translate(0,0)"/>
<path d="M0 0 C3 1 3 1 3 1 Z " fill="#FFFEFE" transform="translate(176,154)"/>
<path d="M0 0 C3 1 3 1 3 1 Z " fill="#FFFEFE" transform="translate(74,154)"/>
<path d="" fill="#FDFEFE" transform="translate(0,0)"/>
<path d="" fill="#FEFEFE" transform="translate(0,0)"/>
<path d="" fill="#FFFDFD" transform="translate(0,0)"/>
<path d="" fill="#FEFEFE" transform="translate(0,0)"/>
<path d="" fill="#FDFDFE" transform="translate(0,0)"/>
<path d="M0 0 C3 1 3 1 3 1 Z " fill="#FDFEFE" transform="translate(471,105)"/>
<path d="M0 0 C3 1 3 1 3 1 Z " fill="#FDFEFE" transform="translate(463,105)"/>
<path d="M0 0 C3 1 3 1 3 1 Z " fill="#FEFEFE" transform="translate(183,103)"/>
<path d="M0 0 C3 1 3 1 3 1 Z " fill="#FDFEFE" transform="translate(464,84)"/>
<path d="M0 0 C2 1 2 1 2 1 Z " fill="#FEFEFE" transform="translate(112,200)"/>
<path d="M0 0 C2 1 2 1 2 1 Z " fill="#FDFEFE" transform="translate(614,195)"/>
<path d="M0 0 C2 1 2 1 2 1 Z " fill="#FEFEFE" transform="translate(594,195)"/>
<path d="M0 0 C2 1 2 1 2 1 Z " fill="#FEFFFF" transform="translate(590,195)"/>
<path d="M0 0 C2 1 2 1 2 1 Z " fill="#FDFEFE" transform="translate(532,195)"/>
<path d="M0 0 C2 1 2 1 2 1 Z " fill="#FDFEFE" transform="translate(454,195)"/>
<path d="M0 0 C2 1 2 1 2 1 Z " fill="#FDFEFE" transform="translate(382,195)"/>
<path d="M0 0 C2 1 2 1 2 1 Z " fill="#FEFEFE" transform="translate(370,195)"/>
<path d="M0 0 C2 1 2 1 2 1 Z " fill="#FDFEFE" transform="translate(351,195)"/>
<path d="M0 0 C2 1 2 1 2 1 Z " fill="#FEFEFE" transform="translate(334,195)"/>
<path d="M0 0 C2 1 2 1 2 1 Z " fill="#FEFFFF" transform="translate(230,195)"/>
<path d="M0 0 C2 1 2 1 2 1 Z " fill="#FEFEFE" transform="translate(33,195)"/>
<path d="M0 0 C2 1 2 1 2 1 Z " fill="#FDFEFE" transform="translate(740,191)"/>
<path d="" fill="#FEFFFF" transform="translate(0,0)"/>
<path d="" fill="#FFFEFE" transform="translate(0,0)"/>
<path d="" fill="#FEFFFF" transform="translate(0,0)"/>
<path d="" fill="#FEFEFE" transform="translate(0,0)"/>
<path d="M0 0 C2 1 2 1 2 1 Z " fill="#FDFEFE" transform="translate(788,180)"/>
<path d="M0 0 C2 1 2 1 2 1 Z " fill="#FEFEFE" transform="translate(785,180)"/>
<path d="" fill="#FEFFFF" transform="translate(0,0)"/>
<path d="" fill="#FEFEFE" transform="translate(0,0)"/>
<path d="" fill="#FDFEFE" transform="translate(0,0)"/>
<path d="" fill="#FFFEFF" transform="translate(0,0)"/>
<path d="" fill="#FEFFFF" transform="translate(0,0)"/>
<path d="" fill="#FEFFFF" transform="translate(0,0)"/>
<path d="" fill="#FEFDFD" transform="translate(0,0)"/>
<path d="" fill="#FEFDFD" transform="translate(0,0)"/>
<path d="" fill="#FEFEFE" transform="translate(0,0)"/>
<path d="" fill="#FEFEFE" transform="translate(0,0)"/>
<path d="" fill="#FEFEFE" transform="translate(0,0)"/>
<path d="M0 0 C2 1 2 1 2 1 Z " fill="#FEFEFE" transform="translate(787,149)"/>
<path d="M0 0 C2 1 2 1 2 1 Z " fill="#FCFDFE" transform="translate(771,149)"/>
<path d="" fill="#FEFFFF" transform="translate(0,0)"/>
<path d="M0 0 C2 1 2 1 2 1 Z " fill="#FCFEFE" transform="translate(474,139)"/>
<path d="M0 0 C2 1 2 1 2 1 Z " fill="#FDFDFE" transform="translate(471,139)"/>
<path d="M0 0 C2 1 2 1 2 1 Z " fill="#FEFFFF" transform="translate(465,139)"/>
<path d="M0 0 C2 1 2 1 2 1 Z " fill="#FEFEFE" transform="translate(434,139)"/>
<path d="M0 0 C2 1 2 1 2 1 Z " fill="#FEFEFE" transform="translate(428,139)"/>
<path d="" fill="#FEFEFE" transform="translate(0,0)"/>
<path d="" fill="#FEFEFE" transform="translate(0,0)"/>
<path d="" fill="#FEFEFE" transform="translate(0,0)"/>
<path d="M0 0 C2 1 2 1 2 1 Z " fill="#FEFEFE" transform="translate(4,130)"/>
<path d="" fill="#FEFFFF" transform="translate(0,0)"/>
<path d="" fill="#FEFFFF" transform="translate(0,0)"/>
<path d="M0 0 C2 1 2 1 2 1 Z " fill="#FEFEFE" transform="translate(466,120)"/>
<path d="M0 0 C2 1 2 1 2 1 Z " fill="#FDFDFE" transform="translate(458,120)"/>
<path d="" fill="#FEFFFF" transform="translate(0,0)"/>
<path d="" fill="#FFFDFD" transform="translate(0,0)"/>
<path d="M0 0 C2 1 2 1 2 1 Z " fill="#FDFEFE" transform="translate(773,119)"/>
<path d="" fill="#FFFEFE" transform="translate(0,0)"/>
<path d="M0 0 C2 1 2 1 2 1 Z " fill="#FCFDFE" transform="translate(642,114)"/>
<path d="M0 0 C2 1 2 1 2 1 Z " fill="#FEFEFE" transform="translate(639,113)"/>
<path d="" fill="#FDFEFE" transform="translate(0,0)"/>
<path d="" fill="#FEFDFE" transform="translate(0,0)"/>
<path d="M0 0 C2 1 2 1 2 1 Z " fill="#FEFEFE" transform="translate(646,87)"/>
<path d="M0 0 C2 1 2 1 2 1 Z " fill="#FEFEFE" transform="translate(405,87)"/>
<path d="M0 0 C2 1 2 1 2 1 Z " fill="#FEFFFF" transform="translate(470,84)"/>
<path d="" fill="#FFFEFE" transform="translate(0,0)"/>
<path d="M0 0 C2 1 2 1 2 1 Z " fill="#FEFEFE" transform="translate(163,75)"/>
<path d="" fill="#FEFFFF" transform="translate(0,0)"/>
<path d="" fill="#FEFEFE" transform="translate(0,0)"/>
<path d="" fill="#FDFEFE" transform="translate(0,0)"/>
<path d="" fill="#FDFEFE" transform="translate(0,0)"/>
<path d="" fill="#FEFFFF" transform="translate(0,0)"/>
<path d="" fill="#FEFFFF" transform="translate(0,0)"/>
<path d="" fill="#FCFDFE" transform="translate(0,0)"/>
<path d="" fill="#FEFEFE" transform="translate(0,0)"/>
<path d="" fill="#FEFEFE" transform="translate(0,0)"/>
<path d="" fill="#FEFDFE" transform="translate(0,0)"/>
<path d="" fill="#FEFEFE" transform="translate(0,0)"/>
<path d="" fill="#FEFFFF" transform="translate(0,0)"/>
<path d="" fill="#FEFEFF" transform="translate(0,0)"/>
<path d="" fill="#FEFFFF" transform="translate(0,0)"/>
<path d="" fill="#FEFEFE" transform="translate(0,0)"/>
<path d="" fill="#FEFFFF" transform="translate(0,0)"/>
<path d="" fill="#FEFFFF" transform="translate(0,0)"/>
<path d="" fill="#FEFFFF" transform="translate(0,0)"/>
<path d="" fill="#FEFEFE" transform="translate(0,0)"/>
<path d="" fill="#FEFFFF" transform="translate(0,0)"/>
<path d="" fill="#FEFEFE" transform="translate(0,0)"/>
<path d="" fill="#FEFFFF" transform="translate(0,0)"/>
<path d="" fill="#FEFFFF" transform="translate(0,0)"/>
<path d="" fill="#FEFFFF" transform="translate(0,0)"/>
<path d="" fill="#FEFFFF" transform="translate(0,0)"/>
<path d="" fill="#FEFFFF" transform="translate(0,0)"/>
<path d="" fill="#FDFEFE" transform="translate(0,0)"/>
<path d="" fill="#FEFEFE" transform="translate(0,0)"/>
<path d="" fill="#FEFFFF" transform="translate(0,0)"/>
<path d="" fill="#FEFFFF" transform="translate(0,0)"/>
<path d="" fill="#FEFFFF" transform="translate(0,0)"/>
<path d="" fill="#FEFFFF" transform="translate(0,0)"/>
<path d="" fill="#FDFEFE" transform="translate(0,0)"/>
<path d="" fill="#FEFFFF" transform="translate(0,0)"/>
<path d="" fill="#FEFFFF" transform="translate(0,0)"/>
<path d="" fill="#FEFFFF" transform="translate(0,0)"/>
<path d="" fill="#FEFFFF" transform="translate(0,0)"/>
<path d="" fill="#FEFFFF" transform="translate(0,0)"/>
<path d="" fill="#FEFEFE" transform="translate(0,0)"/>
<path d="" fill="#FEFFFF" transform="translate(0,0)"/>
<path d="" fill="#FEFFFF" transform="translate(0,0)"/>
<path d="" fill="#FEFFFF" transform="translate(0,0)"/>
<path d="" fill="#FEFFFF" transform="translate(0,0)"/>
<path d="" fill="#FFFEFF" transform="translate(0,0)"/>
<path d="" fill="#FEFEFE" transform="translate(0,0)"/>
<path d="" fill="#FEFFFF" transform="translate(0,0)"/>
<path d="" fill="#FEFFFF" transform="translate(0,0)"/>
<path d="" fill="#FEFFFF" transform="translate(0,0)"/>
<path d="" fill="#FEFEFE" transform="translate(0,0)"/>
<path d="" fill="#FBFDFD" transform="translate(0,0)"/>
<path d="" fill="#FEFFFF" transform="translate(0,0)"/>
<path d="" fill="#FEFFFF" transform="translate(0,0)"/>
<path d="" fill="#FEFFFF" transform="translate(0,0)"/>
<path d="" fill="#FFFFFF" transform="translate(0,0)"/>
<path d="" fill="#FEFFFF" transform="translate(0,0)"/>
<path d="" fill="#FDFEFE" transform="translate(0,0)"/>
<path d="" fill="#FEFFFF" transform="translate(0,0)"/>
<path d="" fill="#FFFEFF" transform="translate(0,0)"/>
<path d="" fill="#FEFFFF" transform="translate(0,0)"/>
<path d="" fill="#FFFEFF" transform="translate(0,0)"/>
<path d="" fill="#FEFFFF" transform="translate(0,0)"/>
<path d="" fill="#FEFEFE" transform="translate(0,0)"/>
<path d="" fill="#FEFFFF" transform="translate(0,0)"/>
<path d="" fill="#FDFDFE" transform="translate(0,0)"/>
<path d="" fill="#FEFFFF" transform="translate(0,0)"/>
<path d="" fill="#FEFFFF" transform="translate(0,0)"/>
<path d="" fill="#FEFEFE" transform="translate(0,0)"/>
<path d="" fill="#FEFFFF" transform="translate(0,0)"/>
<path d="" fill="#FEFEFE" transform="translate(0,0)"/>
<path d="" fill="#FEFFFF" transform="translate(0,0)"/>
<path d="" fill="#FEFEFE" transform="translate(0,0)"/>
<path d="" fill="#FEFFFF" transform="translate(0,0)"/>
<path d="" fill="#FEFFFF" transform="translate(0,0)"/>
<path d="" fill="#FEFEFE" transform="translate(0,0)"/>
<path d="" fill="#FEFFFF" transform="translate(0,0)"/>
<path d="" fill="#FDFEFE" transform="translate(0,0)"/>
<path d="" fill="#FDFEFE" transform="translate(0,0)"/>
<path d="" fill="#FFFEFE" transform="translate(0,0)"/>
<path d="" fill="#FEFEFE" transform="translate(0,0)"/>
<path d="" fill="#FEFEFE" transform="translate(0,0)"/>
<path d="" fill="#FEFFFF" transform="translate(0,0)"/>
<path d="" fill="#FEFFFF" transform="translate(0,0)"/>
<path d="" fill="#FEFFFF" transform="translate(0,0)"/>
<path d="" fill="#FEFFFF" transform="translate(0,0)"/>
<path d="" fill="#FEFFFF" transform="translate(0,0)"/>
<path d="" fill="#FEFEFE" transform="translate(0,0)"/>
<path d="" fill="#FFFFFF" transform="translate(0,0)"/>
<path d="" fill="#FFFFFF" transform="translate(0,0)"/>
<path d="" fill="#FEFDFD" transform="translate(0,0)"/>
<path d="" fill="#FEFEFE" transform="translate(0,0)"/>
<path d="" fill="#FEFEFE" transform="translate(0,0)"/>
<path d="" fill="#FEFFFF" transform="translate(0,0)"/>
<path d="" fill="#FEFFFF" transform="translate(0,0)"/>
<path d="" fill="#FEFEFE" transform="translate(0,0)"/>
<path d="" fill="#FEFFFF" transform="translate(0,0)"/>
<path d="" fill="#FEFFFF" transform="translate(0,0)"/>
<path d="" fill="#FFFFFF" transform="translate(0,0)"/>
<path d="" fill="#FEFEFE" transform="translate(0,0)"/>
<path d="" fill="#FEFFFF" transform="translate(0,0)"/>
<path d="" fill="#FEFFFF" transform="translate(0,0)"/>
<path d="" fill="#FEFFFF" transform="translate(0,0)"/>
<path d="" fill="#FEFFFF" transform="translate(0,0)"/>
<path d="" fill="#FEFFFF" transform="translate(0,0)"/>
<path d="" fill="#FFFEFE" transform="translate(0,0)"/>
<path d="" fill="#FEFDFD" transform="translate(0,0)"/>
<path d="" fill="#FEFEFE" transform="translate(0,0)"/>
<path d="" fill="#FDFEFE" transform="translate(0,0)"/>
<path d="" fill="#FEFFFF" transform="translate(0,0)"/>
<path d="" fill="#FEFFFF" transform="translate(0,0)"/>
<path d="" fill="#FEFEFE" transform="translate(0,0)"/>
<path d="" fill="#FEFEFE" transform="translate(0,0)"/>
<path d="" fill="#FEFEFE" transform="translate(0,0)"/>
<path d="" fill="#FEFFFF" transform="translate(0,0)"/>
<path d="" fill="#FEFFFF" transform="translate(0,0)"/>
<path d="" fill="#FEFFFF" transform="translate(0,0)"/>
<path d="" fill="#FEFFFF" transform="translate(0,0)"/>
<path d="" fill="#FEFFFF" transform="translate(0,0)"/>
<path d="" fill="#FEFFFF" transform="translate(0,0)"/>
<path d="" fill="#FEFFFF" transform="translate(0,0)"/>
<path d="" fill="#FEFEFE" transform="translate(0,0)"/>
<path d="" fill="#FEFFFF" transform="translate(0,0)"/>
<path d="" fill="#FEFFFF" transform="translate(0,0)"/>
<path d="" fill="#FFFEFE" transform="translate(0,0)"/>
<path d="" fill="#FEFFFF" transform="translate(0,0)"/>
<path d="" fill="#FEFFFF" transform="translate(0,0)"/>
<path d="" fill="#FEFFFF" transform="translate(0,0)"/>
<path d="" fill="#FEFFFF" transform="translate(0,0)"/>
<path d="" fill="#FEFFFF" transform="translate(0,0)"/>
<path d="" fill="#FFFEFE" transform="translate(0,0)"/>
<path d="" fill="#FFFFFF" transform="translate(0,0)"/>
<path d="" fill="#FFFEFF" transform="translate(0,0)"/>
<path d="" fill="#FFFEFE" transform="translate(0,0)"/>
<path d="" fill="#FFFEFE" transform="translate(0,0)"/>
<path d="" fill="#FFFEFE" transform="translate(0,0)"/>
<path d="" fill="#FFFEFE" transform="translate(0,0)"/>
<path d="" fill="#FFFEFE" transform="translate(0,0)"/>
<path d="" fill="#FEFDFD" transform="translate(0,0)"/>
<path d="" fill="#FFFEFE" transform="translate(0,0)"/>
<path d="" fill="#FFFEFE" transform="translate(0,0)"/>
<path d="" fill="#FFFEFE" transform="translate(0,0)"/>
<path d="" fill="#FFFEFE" transform="translate(0,0)"/>
<path d="" fill="#FFFEFE" transform="translate(0,0)"/>
<path d="" fill="#FFFDFD" transform="translate(0,0)"/>
<path d="" fill="#FFFEFE" transform="translate(0,0)"/>
<path d="" fill="#FEFDFD" transform="translate(0,0)"/>
<path d="" fill="#FEFFFF" transform="translate(0,0)"/>
<path d="" fill="#FFFEFE" transform="translate(0,0)"/>
<path d="" fill="#FFFEFE" transform="translate(0,0)"/>
<path d="" fill="#FEFCFC" transform="translate(0,0)"/>
<path d="" fill="#FEFDFD" transform="translate(0,0)"/>
<path d="" fill="#FEFEFE" transform="translate(0,0)"/>
<path d="" fill="#FEFFFF" transform="translate(0,0)"/>
<path d="" fill="#FEFFFF" transform="translate(0,0)"/>
<path d="" fill="#FEFEFE" transform="translate(0,0)"/>
<path d="" fill="#FEFFFF" transform="translate(0,0)"/>
<path d="" fill="#FEFEFE" transform="translate(0,0)"/>
<path d="" fill="#FEFFFF" transform="translate(0,0)"/>
<path d="" fill="#FEFFFF" transform="translate(0,0)"/>
<path d="" fill="#FFFEFE" transform="translate(0,0)"/>
<path d="" fill="#FEFFFF" transform="translate(0,0)"/>
<path d="" fill="#FEFFFF" transform="translate(0,0)"/>
<path d="" fill="#FEFFFF" transform="translate(0,0)"/>
<path d="" fill="#FFFEFE" transform="translate(0,0)"/>
<path d="" fill="#FFFEFE" transform="translate(0,0)"/>
<path d="" fill="#FEFEFE" transform="translate(0,0)"/>
<path d="" fill="#FEFFFF" transform="translate(0,0)"/>
<path d="" fill="#FEFFFF" transform="translate(0,0)"/>
<path d="" fill="#FFFEFE" transform="translate(0,0)"/>
<path d="" fill="#FFFEFE" transform="translate(0,0)"/>
<path d="" fill="#FEFFFF" transform="translate(0,0)"/>
<path d="" fill="#FDFEFE" transform="translate(0,0)"/>
<path d="" fill="#FFFEFE" transform="translate(0,0)"/>
<path d="" fill="#FEFFFF" transform="translate(0,0)"/>
<path d="" fill="#FFFDFD" transform="translate(0,0)"/>
<path d="" fill="#FEFEFE" transform="translate(0,0)"/>
<path d="" fill="#FEFFFF" transform="translate(0,0)"/>
<path d="" fill="#FDFEFE" transform="translate(0,0)"/>
<path d="" fill="#FEFEFE" transform="translate(0,0)"/>
<path d="" fill="#FEFFFF" transform="translate(0,0)"/>
<path d="" fill="#FDFEFE" transform="translate(0,0)"/>
<path d="" fill="#FCFDFE" transform="translate(0,0)"/>
<path d="" fill="#FFFEFE" transform="translate(0,0)"/>
<path d="" fill="#FEFFFF" transform="translate(0,0)"/>
<path d="" fill="#FEFFFF" transform="translate(0,0)"/>
<path d="" fill="#FDFEFE" transform="translate(0,0)"/>
<path d="" fill="#FEFFFF" transform="translate(0,0)"/>
<path d="" fill="#FAFCFD" transform="translate(0,0)"/>
<path d="" fill="#FEFFFF" transform="translate(0,0)"/>
<path d="" fill="#FEFEFE" transform="translate(0,0)"/>
<path d="" fill="#FEFFFF" transform="translate(0,0)"/>
<path d="" fill="#FEFFFF" transform="translate(0,0)"/>
<path d="" fill="#FEFEFE" transform="translate(0,0)"/>
<path d="" fill="#FEFFFF" transform="translate(0,0)"/>
<path d="" fill="#FEFFFF" transform="translate(0,0)"/>
<path d="" fill="#FEFFFF" transform="translate(0,0)"/>
<path d="" fill="#FEFFFF" transform="translate(0,0)"/>
<path d="" fill="#FFFEFE" transform="translate(0,0)"/>
<path d="" fill="#FFFFFF" transform="translate(0,0)"/>
<path d="" fill="#FEFDFD" transform="translate(0,0)"/>
<path d="" fill="#FDFDFD" transform="translate(0,0)"/>
<path d="" fill="#FEFFFF" transform="translate(0,0)"/>
<path d="" fill="#FEFFFF" transform="translate(0,0)"/>
<path d="" fill="#FFFEFE" transform="translate(0,0)"/>
<path d="" fill="#FFFEFE" transform="translate(0,0)"/>
<path d="" fill="#FFFEFE" transform="translate(0,0)"/>
<path d="" fill="#FEFFFF" transform="translate(0,0)"/>
<path d="" fill="#FEFEFE" transform="translate(0,0)"/>
<path d="" fill="#FFFDFD" transform="translate(0,0)"/>
<path d="" fill="#FEFBFB" transform="translate(0,0)"/>
<path d="" fill="#FEFFFF" transform="translate(0,0)"/>
<path d="" fill="#FEFFFF" transform="translate(0,0)"/>
<path d="" fill="#FFFEFE" transform="translate(0,0)"/>
<path d="" fill="#FFFDFD" transform="translate(0,0)"/>
<path d="" fill="#FDFEFE" transform="translate(0,0)"/>
<path d="" fill="#FEFFFF" transform="translate(0,0)"/>
<path d="" fill="#FEFFFF" transform="translate(0,0)"/>
<path d="" fill="#FEFFFF" transform="translate(0,0)"/>
<path d="" fill="#FEFFFF" transform="translate(0,0)"/>
<path d="" fill="#FEFFFF" transform="translate(0,0)"/>
<path d="" fill="#FEFEFE" transform="translate(0,0)"/>
<path d="" fill="#FEFFFF" transform="translate(0,0)"/>
<path d="" fill="#FEFEFE" transform="translate(0,0)"/>
<path d="" fill="#FFFEFE" transform="translate(0,0)"/>
<path d="" fill="#FCFDFE" transform="translate(0,0)"/>
<path d="" fill="#FDFEFE" transform="translate(0,0)"/>
<path d="" fill="#FEFEFE" transform="translate(0,0)"/>
<path d="" fill="#FEFFFF" transform="translate(0,0)"/>
<path d="" fill="#FEFEFE" transform="translate(0,0)"/>
<path d="" fill="#FEFFFF" transform="translate(0,0)"/>
<path d="" fill="#FEFFFF" transform="translate(0,0)"/>
<path d="" fill="#FEFFFF" transform="translate(0,0)"/>
<path d="" fill="#FEFFFF" transform="translate(0,0)"/>
<path d="" fill="#FEFFFF" transform="translate(0,0)"/>
<path d="" fill="#FEFFFF" transform="translate(0,0)"/>
<path d="" fill="#FEFFFF" transform="translate(0,0)"/>
<path d="" fill="#FEFDFE" transform="translate(0,0)"/>
<path d="" fill="#FEFFFF" transform="translate(0,0)"/>
<path d="" fill="#FEFFFF" transform="translate(0,0)"/>
<path d="" fill="#FEFCFC" transform="translate(0,0)"/>
<path d="" fill="#FEFEFE" transform="translate(0,0)"/>
<path d="" fill="#FEFFFF" transform="translate(0,0)"/>
<path d="" fill="#FEFFFF" transform="translate(0,0)"/>
<path d="" fill="#FEFFFF" transform="translate(0,0)"/>
<path d="" fill="#FEFEFE" transform="translate(0,0)"/>
<path d="" fill="#FDFEFE" transform="translate(0,0)"/>
<path d="" fill="#FEFEFE" transform="translate(0,0)"/>
<path d="" fill="#FEFEFE" transform="translate(0,0)"/>
<path d="" fill="#FFFFFF" transform="translate(0,0)"/>
<path d="" fill="#FFFEFE" transform="translate(0,0)"/>
<path d="" fill="#FEFFFF" transform="translate(0,0)"/>
<path d="" fill="#FEFFFF" transform="translate(0,0)"/>
<path d="" fill="#FEFFFF" transform="translate(0,0)"/>
<path d="" fill="#FEFFFF" transform="translate(0,0)"/>
<path d="" fill="#FEFFFF" transform="translate(0,0)"/>
<path d="" fill="#FEFFFF" transform="translate(0,0)"/>
<path d="" fill="#FEFFFF" transform="translate(0,0)"/>
<path d="" fill="#FEFBFC" transform="translate(0,0)"/>
<path d="" fill="#FEFFFF" transform="translate(0,0)"/>
<path d="" fill="#FEFFFF" transform="translate(0,0)"/>
<path d="" fill="#FFFFFF" transform="translate(0,0)"/>
<path d="" fill="#FEFEFE" transform="translate(0,0)"/>
<path d="" fill="#FEFFFF" transform="translate(0,0)"/>
<path d="" fill="#FEFEFE" transform="translate(0,0)"/>
<path d="" fill="#FFFFFF" transform="translate(0,0)"/>
<path d="" fill="#FFFEFE" transform="translate(0,0)"/>
<path d="" fill="#FEFEFE" transform="translate(0,0)"/>
<path d="" fill="#FEFEFE" transform="translate(0,0)"/>
<path d="" fill="#FEFFFF" transform="translate(0,0)"/>
<path d="" fill="#FEFFFF" transform="translate(0,0)"/>
<path d="" fill="#FEFFFF" transform="translate(0,0)"/>
<path d="" fill="#FFFFFF" transform="translate(0,0)"/>
<path d="" fill="#FEFFFF" transform="translate(0,0)"/>
<path d="" fill="#FEFFFF" transform="translate(0,0)"/>
<path d="" fill="#FEFFFF" transform="translate(0,0)"/>
<path d="" fill="#FDFDFE" transform="translate(0,0)"/>
<path d="" fill="#FFFEFE" transform="translate(0,0)"/>
<path d="" fill="#FEFEFE" transform="translate(0,0)"/>
<path d="" fill="#FEFEFE" transform="translate(0,0)"/>
<path d="" fill="#FEFFFF" transform="translate(0,0)"/>
<path d="" fill="#FFFFFF" transform="translate(0,0)"/>
<path d="" fill="#FFFEFE" transform="translate(0,0)"/>
<path d="" fill="#FEFEFE" transform="translate(0,0)"/>
<path d="" fill="#FEFFFF" transform="translate(0,0)"/>
<path d="" fill="#FFFEFF" transform="translate(0,0)"/>
<path d="" fill="#FFFEFE" transform="translate(0,0)"/>
<path d="" fill="#FEFFFF" transform="translate(0,0)"/>
<path d="" fill="#FEFEFE" transform="translate(0,0)"/>
<path d="" fill="#FEFFFF" transform="translate(0,0)"/>
<path d="" fill="#FFFEFF" transform="translate(0,0)"/>
<path d="" fill="#FFFEFE" transform="translate(0,0)"/>
<path d="" fill="#FFFEFF" transform="translate(0,0)"/>
<path d="" fill="#FFFEFE" transform="translate(0,0)"/>
<path d="" fill="#FEFFFF" transform="translate(0,0)"/>
<path d="" fill="#FEFEFE" transform="translate(0,0)"/>
<path d="" fill="#FEFDFD" transform="translate(0,0)"/>
<path d="" fill="#FEFFFF" transform="translate(0,0)"/>
<path d="" fill="#FEFFFF" transform="translate(0,0)"/>
<path d="" fill="#FEFFFF" transform="translate(0,0)"/>
<path d="" fill="#FEFFFF" transform="translate(0,0)"/>
<path d="" fill="#FEFEFE" transform="translate(0,0)"/>
<path d="" fill="#FEFFFF" transform="translate(0,0)"/>
<path d="" fill="#FEFFFF" transform="translate(0,0)"/>
<path d="" fill="#FEFFFF" transform="translate(0,0)"/>
<path d="" fill="#FEFFFF" transform="translate(0,0)"/>
<path d="" fill="#FEFFFF" transform="translate(0,0)"/>
<path d="" fill="#FFFEFE" transform="translate(0,0)"/>
<path d="" fill="#FEFFFF" transform="translate(0,0)"/>
<path d="" fill="#FEFFFF" transform="translate(0,0)"/>
<path d="" fill="#FFFEFE" transform="translate(0,0)"/>
<path d="" fill="#FEFFFF" transform="translate(0,0)"/>
<path d="" fill="#FFFEFE" transform="translate(0,0)"/>
<path d="" fill="#FFFEFE" transform="translate(0,0)"/>
<path d="" fill="#FFFEFE" transform="translate(0,0)"/>
<path d="" fill="#FEFDFE" transform="translate(0,0)"/>
<path d="" fill="#FEFEFE" transform="translate(0,0)"/>
<path d="" fill="#FFFFFF" transform="translate(0,0)"/>
<path d="" fill="#FEFEFE" transform="translate(0,0)"/>
<path d="" fill="#FEFEFE" transform="translate(0,0)"/>
<path d="" fill="#FDFEFE" transform="translate(0,0)"/>
<path d="" fill="#FEFFFF" transform="translate(0,0)"/>
<path d="" fill="#FDFEFE" transform="translate(0,0)"/>
<path d="" fill="#FEFFFF" transform="translate(0,0)"/>
<path d="" fill="#FEFFFF" transform="translate(0,0)"/>
<path d="" fill="#FCFDFE" transform="translate(0,0)"/>
<path d="" fill="#FEFFFF" transform="translate(0,0)"/>
<path d="" fill="#FEFFFF" transform="translate(0,0)"/>
</svg>
